<?xml version="1.0" encoding="utf-8" standalone="no"?>
<!DOCTYPE svg PUBLIC "-//W3C//DTD SVG 1.1//EN"
  "http://www.w3.org/Graphics/SVG/1.1/DTD/svg11.dtd">
<svg xmlns:xlink="http://www.w3.org/1999/xlink" width="360pt" height="288pt" viewBox="0 0 360 288" xmlns="http://www.w3.org/2000/svg" version="1.1">
 <metadata>
  <rdf:RDF xmlns:dc="http://purl.org/dc/elements/1.1/" xmlns:cc="http://creativecommons.org/ns#" xmlns:rdf="http://www.w3.org/1999/02/22-rdf-syntax-ns#">
   <cc:Work>
    <dc:type rdf:resource="http://purl.org/dc/dcmitype/StillImage"/>
    <dc:date>2024-08-21T14:34:09.389161</dc:date>
    <dc:format>image/svg+xml</dc:format>
    <dc:creator>
     <cc:Agent>
      <dc:title>Matplotlib v3.8.4, https://matplotlib.org/</dc:title>
     </cc:Agent>
    </dc:creator>
   </cc:Work>
  </rdf:RDF>
 </metadata>
 <defs>
  <style type="text/css">*{stroke-linejoin: round; stroke-linecap: butt}</style>
 </defs>
 <g id="figure_1">
  <g id="patch_1">
   <path d="M 0 288 
L 360 288 
L 360 0 
L 0 0 
z
" style="fill: #ffffff"/>
  </g>
  <g id="axes_1">
   <g id="patch_2">
    <path d="M 45 256.32 
L 324 256.32 
L 324 34.56 
L 45 34.56 
z
" style="fill: #ffffff"/>
   </g>
   <g id="matplotlib.axis_1">
    <g id="xtick_1">
     <g id="line2d_1">
      <path d="M 48.110635 256.32 
L 48.110635 34.56 
" clip-path="url(#pc6559ff267)" style="fill: none; stroke-dasharray: 2.96,1.28; stroke-dashoffset: 0; stroke: #b0b0b0; stroke-width: 0.8"/>
     </g>
     <g id="line2d_2">
      <defs>
       <path id="m1e71ad65a5" d="M 0 0 
L 0 -3.5 
" style="stroke: #000000; stroke-width: 0.8"/>
      </defs>
      <g>
       <use xlink:href="#m1e71ad65a5" x="48.110635" y="256.32" style="stroke: #000000; stroke-width: 0.8"/>
      </g>
     </g>
     <g id="line2d_3">
      <defs>
       <path id="mf503e35d2b" d="M 0 0 
L 0 3.5 
" style="stroke: #000000; stroke-width: 0.8"/>
      </defs>
      <g>
       <use xlink:href="#mf503e35d2b" x="48.110635" y="34.56" style="stroke: #000000; stroke-width: 0.8"/>
      </g>
     </g>
     <g id="text_1">
      <!-- $\mathdefault{0}$ -->
      <g transform="translate(44.452516 270.197725) scale(0.15 -0.15)">
       <defs>
        <path id="CMR17-30" d="M 2688 2025 
C 2688 2416 2682 3080 2413 3591 
C 2176 4039 1798 4198 1466 4198 
C 1158 4198 768 4058 525 3597 
C 269 3118 243 2524 243 2025 
C 243 1661 250 1106 448 619 
C 723 -39 1216 -128 1466 -128 
C 1760 -128 2208 -7 2470 600 
C 2662 1042 2688 1559 2688 2025 
z
M 1466 -26 
C 1056 -26 813 325 723 812 
C 653 1188 653 1738 653 2096 
C 653 2588 653 2997 736 3387 
C 858 3929 1216 4096 1466 4096 
C 1728 4096 2067 3923 2189 3400 
C 2272 3036 2278 2607 2278 2096 
C 2278 1680 2278 1169 2202 792 
C 2067 95 1690 -26 1466 -26 
z
" transform="scale(0.015625)"/>
       </defs>
       <use xlink:href="#CMR17-30" transform="scale(0.996264)"/>
      </g>
     </g>
    </g>
    <g id="xtick_2">
     <g id="line2d_4">
      <path d="M 95.966552 256.32 
L 95.966552 34.56 
" clip-path="url(#pc6559ff267)" style="fill: none; stroke-dasharray: 2.96,1.28; stroke-dashoffset: 0; stroke: #b0b0b0; stroke-width: 0.8"/>
     </g>
     <g id="line2d_5">
      <g>
       <use xlink:href="#m1e71ad65a5" x="95.966552" y="256.32" style="stroke: #000000; stroke-width: 0.8"/>
      </g>
     </g>
     <g id="line2d_6">
      <g>
       <use xlink:href="#mf503e35d2b" x="95.966552" y="34.56" style="stroke: #000000; stroke-width: 0.8"/>
      </g>
     </g>
     <g id="text_2">
      <!-- $\mathdefault{10}$ -->
      <g transform="translate(88.650315 270.197725) scale(0.15 -0.15)">
       <defs>
        <path id="CMR17-31" d="M 1702 4058 
C 1702 4192 1696 4192 1606 4192 
C 1357 3916 979 3827 621 3827 
C 602 3827 570 3827 563 3808 
C 557 3795 557 3782 557 3648 
C 755 3648 1088 3686 1344 3839 
L 1344 461 
C 1344 236 1331 160 781 160 
L 589 160 
L 589 0 
C 896 0 1216 0 1523 0 
C 1830 0 2150 0 2458 0 
L 2458 160 
L 2266 160 
C 1715 160 1702 230 1702 458 
L 1702 4058 
z
" transform="scale(0.015625)"/>
       </defs>
       <use xlink:href="#CMR17-31" transform="scale(0.996264)"/>
       <use xlink:href="#CMR17-30" transform="translate(45.690477 0) scale(0.996264)"/>
      </g>
     </g>
    </g>
    <g id="xtick_3">
     <g id="line2d_7">
      <path d="M 143.82247 256.32 
L 143.82247 34.56 
" clip-path="url(#pc6559ff267)" style="fill: none; stroke-dasharray: 2.96,1.28; stroke-dashoffset: 0; stroke: #b0b0b0; stroke-width: 0.8"/>
     </g>
     <g id="line2d_8">
      <g>
       <use xlink:href="#m1e71ad65a5" x="143.82247" y="256.32" style="stroke: #000000; stroke-width: 0.8"/>
      </g>
     </g>
     <g id="line2d_9">
      <g>
       <use xlink:href="#mf503e35d2b" x="143.82247" y="34.56" style="stroke: #000000; stroke-width: 0.8"/>
      </g>
     </g>
     <g id="text_3">
      <!-- $\mathdefault{20}$ -->
      <g transform="translate(136.506232 270.197725) scale(0.15 -0.15)">
       <defs>
        <path id="CMR17-32" d="M 2669 989 
L 2554 989 
C 2490 536 2438 459 2413 420 
C 2381 369 1920 369 1830 369 
L 602 369 
C 832 619 1280 1072 1824 1597 
C 2214 1967 2669 2402 2669 3035 
C 2669 3790 2067 4224 1395 4224 
C 691 4224 262 3604 262 3030 
C 262 2780 448 2748 525 2748 
C 589 2748 781 2787 781 3010 
C 781 3207 614 3264 525 3264 
C 486 3264 448 3258 422 3245 
C 544 3790 915 4058 1306 4058 
C 1862 4058 2227 3617 2227 3035 
C 2227 2479 1901 2000 1536 1584 
L 262 146 
L 262 0 
L 2515 0 
L 2669 989 
z
" transform="scale(0.015625)"/>
       </defs>
       <use xlink:href="#CMR17-32" transform="scale(0.996264)"/>
       <use xlink:href="#CMR17-30" transform="translate(45.690477 0) scale(0.996264)"/>
      </g>
     </g>
    </g>
    <g id="xtick_4">
     <g id="line2d_10">
      <path d="M 191.678388 256.32 
L 191.678388 34.56 
" clip-path="url(#pc6559ff267)" style="fill: none; stroke-dasharray: 2.96,1.28; stroke-dashoffset: 0; stroke: #b0b0b0; stroke-width: 0.8"/>
     </g>
     <g id="line2d_11">
      <g>
       <use xlink:href="#m1e71ad65a5" x="191.678388" y="256.32" style="stroke: #000000; stroke-width: 0.8"/>
      </g>
     </g>
     <g id="line2d_12">
      <g>
       <use xlink:href="#mf503e35d2b" x="191.678388" y="34.56" style="stroke: #000000; stroke-width: 0.8"/>
      </g>
     </g>
     <g id="text_4">
      <!-- $\mathdefault{30}$ -->
      <g transform="translate(184.36215 270.197725) scale(0.15 -0.15)">
       <defs>
        <path id="CMR17-33" d="M 1414 2157 
C 1984 2157 2234 1662 2234 1090 
C 2234 320 1824 25 1453 25 
C 1114 25 563 194 390 693 
C 422 680 454 680 486 680 
C 640 680 755 782 755 948 
C 755 1133 614 1216 486 1216 
C 378 1216 211 1165 211 926 
C 211 335 787 -128 1466 -128 
C 2176 -128 2720 430 2720 1085 
C 2720 1707 2208 2157 1600 2227 
C 2086 2328 2554 2756 2554 3329 
C 2554 3820 2048 4179 1472 4179 
C 890 4179 378 3829 378 3329 
C 378 3110 544 3072 627 3072 
C 762 3072 877 3155 877 3321 
C 877 3486 762 3569 627 3569 
C 602 3569 570 3569 544 3557 
C 730 3959 1235 4032 1459 4032 
C 1683 4032 2106 3925 2106 3320 
C 2106 3143 2080 2828 1862 2550 
C 1670 2304 1453 2304 1242 2284 
C 1210 2284 1062 2269 1037 2269 
C 992 2263 966 2257 966 2208 
C 966 2163 973 2157 1101 2157 
L 1414 2157 
z
" transform="scale(0.015625)"/>
       </defs>
       <use xlink:href="#CMR17-33" transform="scale(0.996264)"/>
       <use xlink:href="#CMR17-30" transform="translate(45.690477 0) scale(0.996264)"/>
      </g>
     </g>
    </g>
    <g id="xtick_5">
     <g id="line2d_13">
      <path d="M 239.534305 256.32 
L 239.534305 34.56 
" clip-path="url(#pc6559ff267)" style="fill: none; stroke-dasharray: 2.96,1.28; stroke-dashoffset: 0; stroke: #b0b0b0; stroke-width: 0.8"/>
     </g>
     <g id="line2d_14">
      <g>
       <use xlink:href="#m1e71ad65a5" x="239.534305" y="256.32" style="stroke: #000000; stroke-width: 0.8"/>
      </g>
     </g>
     <g id="line2d_15">
      <g>
       <use xlink:href="#mf503e35d2b" x="239.534305" y="34.56" style="stroke: #000000; stroke-width: 0.8"/>
      </g>
     </g>
     <g id="text_5">
      <!-- $\mathdefault{40}$ -->
      <g transform="translate(232.218068 270.197725) scale(0.15 -0.15)">
       <defs>
        <path id="CMR17-34" d="M 2150 4122 
C 2150 4256 2144 4256 2029 4256 
L 128 1254 
L 128 1088 
L 1779 1088 
L 1779 457 
C 1779 224 1766 160 1318 160 
L 1197 160 
L 1197 0 
C 1402 0 1747 0 1965 0 
C 2182 0 2528 0 2733 0 
L 2733 160 
L 2611 160 
C 2163 160 2150 224 2150 457 
L 2150 1088 
L 2803 1088 
L 2803 1254 
L 2150 1254 
L 2150 4122 
z
M 1798 3703 
L 1798 1254 
L 256 1254 
L 1798 3703 
z
" transform="scale(0.015625)"/>
       </defs>
       <use xlink:href="#CMR17-34" transform="scale(0.996264)"/>
       <use xlink:href="#CMR17-30" transform="translate(45.690477 0) scale(0.996264)"/>
      </g>
     </g>
    </g>
    <g id="xtick_6">
     <g id="line2d_16">
      <path d="M 287.390223 256.32 
L 287.390223 34.56 
" clip-path="url(#pc6559ff267)" style="fill: none; stroke-dasharray: 2.96,1.28; stroke-dashoffset: 0; stroke: #b0b0b0; stroke-width: 0.8"/>
     </g>
     <g id="line2d_17">
      <g>
       <use xlink:href="#m1e71ad65a5" x="287.390223" y="256.32" style="stroke: #000000; stroke-width: 0.8"/>
      </g>
     </g>
     <g id="line2d_18">
      <g>
       <use xlink:href="#mf503e35d2b" x="287.390223" y="34.56" style="stroke: #000000; stroke-width: 0.8"/>
      </g>
     </g>
     <g id="text_6">
      <!-- $\mathdefault{50}$ -->
      <g transform="translate(280.073985 270.197725) scale(0.15 -0.15)">
       <defs>
        <path id="CMR17-35" d="M 730 3692 
C 794 3666 1056 3584 1325 3584 
C 1920 3584 2246 3911 2432 4100 
C 2432 4157 2432 4192 2394 4192 
C 2387 4192 2374 4192 2323 4163 
C 2099 4058 1837 3973 1517 3973 
C 1325 3973 1037 3999 723 4139 
C 653 4171 640 4171 634 4171 
C 602 4171 595 4164 595 4037 
L 595 2203 
C 595 2089 595 2057 659 2057 
C 691 2057 704 2070 736 2114 
C 941 2401 1222 2522 1542 2522 
C 1766 2522 2246 2382 2246 1289 
C 2246 1085 2246 715 2054 421 
C 1894 159 1645 25 1370 25 
C 947 25 518 320 403 814 
C 429 807 480 795 506 795 
C 589 795 749 840 749 1038 
C 749 1210 627 1280 506 1280 
C 358 1280 262 1190 262 1011 
C 262 454 704 -128 1382 -128 
C 2042 -128 2669 440 2669 1264 
C 2669 2030 2170 2624 1549 2624 
C 1222 2624 947 2503 730 2274 
L 730 3692 
z
" transform="scale(0.015625)"/>
       </defs>
       <use xlink:href="#CMR17-35" transform="scale(0.996264)"/>
       <use xlink:href="#CMR17-30" transform="translate(45.690477 0) scale(0.996264)"/>
      </g>
     </g>
    </g>
    <g id="text_7">
     <!-- T [K] -->
     <g transform="translate(167.024913 288.31144) scale(0.15 -0.15)">
      <defs>
       <path id="CMR17-54" d="M 3981 4326 
L 288 4326 
L 179 2918 
L 294 2918 
C 378 3976 467 4160 1453 4160 
C 1568 4160 1754 4160 1805 4154 
C 1926 4135 1926 4058 1926 3912 
L 1926 459 
C 1926 230 1907 160 1376 160 
L 1197 160 
L 1197 0 
C 1504 0 1824 0 2138 0 
C 2451 0 2771 0 3078 0 
L 3078 160 
L 2899 160 
C 2368 160 2349 230 2349 459 
L 2349 3912 
C 2349 4052 2349 4129 2464 4154 
C 2515 4160 2701 4160 2816 4160 
C 3795 4160 3891 3976 3974 2918 
L 4090 2918 
L 3981 4326 
z
" transform="scale(0.015625)"/>
       <path id="CMR17-5b" d="M 1504 -1600 
L 1504 -1377 
L 902 -1377 
L 902 4544 
L 1504 4544 
L 1504 4767 
L 678 4767 
L 678 -1600 
L 1504 -1600 
z
" transform="scale(0.015625)"/>
       <path id="CMR17-4b" d="M 2362 2675 
L 3469 3782 
C 3699 4006 3942 4186 4301 4186 
L 4301 4352 
C 4173 4352 4013 4352 3885 4352 
C 3712 4352 3411 4352 3245 4358 
L 3245 4192 
C 3411 4180 3437 4065 3437 4019 
C 3437 3975 3411 3905 3386 3867 
L 1261 1738 
L 1261 3900 
C 1261 4186 1331 4186 1773 4186 
L 1773 4352 
C 1587 4352 1248 4352 1050 4352 
C 851 4352 512 4352 326 4352 
L 326 4186 
C 768 4186 838 4186 838 3899 
L 838 446 
C 838 160 768 160 326 160 
L 326 0 
C 512 0 851 0 1050 0 
C 1248 0 1587 0 1773 0 
L 1773 160 
C 1331 160 1261 160 1261 447 
L 1261 1579 
L 2080 2390 
L 3290 537 
C 3328 473 3373 390 3373 326 
C 3373 160 3194 160 3110 160 
L 3110 0 
C 3315 0 3610 0 3821 0 
C 3974 0 4237 0 4384 -6 
L 4384 160 
C 4077 160 3981 198 3789 493 
L 2362 2675 
z
" transform="scale(0.015625)"/>
       <path id="CMR17-5d" d="M 915 4767 
L 90 4767 
L 90 4544 
L 691 4544 
L 691 -1377 
L 90 -1377 
L 90 -1600 
L 915 -1600 
L 915 4767 
z
" transform="scale(0.015625)"/>
      </defs>
      <use xlink:href="#CMR17-54" transform="scale(0.996264)"/>
      <use xlink:href="#CMR17-5b" transform="translate(96.585847 0) scale(0.996264)"/>
      <use xlink:href="#CMR17-4b" transform="translate(121.456905 0) scale(0.996264)"/>
      <use xlink:href="#CMR17-5d" transform="translate(193.131683 0) scale(0.996264)"/>
     </g>
    </g>
   </g>
   <g id="matplotlib.axis_2">
    <g id="ytick_1">
     <g id="line2d_19">
      <path d="M 45 237.296439 
L 324 237.296439 
" clip-path="url(#pc6559ff267)" style="fill: none; stroke-dasharray: 2.96,1.28; stroke-dashoffset: 0; stroke: #b0b0b0; stroke-width: 0.8"/>
     </g>
     <g id="line2d_20">
      <defs>
       <path id="me572695e4c" d="M 0 0 
L 3.5 0 
" style="stroke: #000000; stroke-width: 0.8"/>
      </defs>
      <g>
       <use xlink:href="#me572695e4c" x="45" y="237.296439" style="stroke: #000000; stroke-width: 0.8"/>
      </g>
     </g>
     <g id="line2d_21">
      <defs>
       <path id="m1951d2c5ed" d="M 0 0 
L -3.5 0 
" style="stroke: #000000; stroke-width: 0.8"/>
      </defs>
      <g>
       <use xlink:href="#m1951d2c5ed" x="324" y="237.296439" style="stroke: #000000; stroke-width: 0.8"/>
      </g>
     </g>
     <g id="text_8">
      <!-- $\mathdefault{0.0}$ -->
      <g transform="translate(22.802948 242.485302) scale(0.15 -0.15)">
       <defs>
        <path id="CMMI12-3a" d="M 1178 307 
C 1178 492 1024 619 870 619 
C 685 619 557 466 557 313 
C 557 128 710 0 864 0 
C 1050 0 1178 153 1178 307 
z
" transform="scale(0.015625)"/>
       </defs>
       <use xlink:href="#CMR17-30" transform="scale(0.996264)"/>
       <use xlink:href="#CMMI12-3a" transform="translate(45.690477 0) scale(0.996264)"/>
       <use xlink:href="#CMR17-30" transform="translate(72.787654 0) scale(0.996264)"/>
      </g>
     </g>
    </g>
    <g id="ytick_2">
     <g id="line2d_22">
      <path d="M 45 174.604824 
L 324 174.604824 
" clip-path="url(#pc6559ff267)" style="fill: none; stroke-dasharray: 2.96,1.28; stroke-dashoffset: 0; stroke: #b0b0b0; stroke-width: 0.8"/>
     </g>
     <g id="line2d_23">
      <g>
       <use xlink:href="#me572695e4c" x="45" y="174.604824" style="stroke: #000000; stroke-width: 0.8"/>
      </g>
     </g>
     <g id="line2d_24">
      <g>
       <use xlink:href="#m1951d2c5ed" x="324" y="174.604824" style="stroke: #000000; stroke-width: 0.8"/>
      </g>
     </g>
     <g id="text_9">
      <!-- $\mathdefault{0.5}$ -->
      <g transform="translate(22.802948 179.793686) scale(0.15 -0.15)">
       <use xlink:href="#CMR17-30" transform="scale(0.996264)"/>
       <use xlink:href="#CMMI12-3a" transform="translate(45.690477 0) scale(0.996264)"/>
       <use xlink:href="#CMR17-35" transform="translate(72.787654 0) scale(0.996264)"/>
      </g>
     </g>
    </g>
    <g id="ytick_3">
     <g id="line2d_25">
      <path d="M 45 111.913208 
L 324 111.913208 
" clip-path="url(#pc6559ff267)" style="fill: none; stroke-dasharray: 2.96,1.28; stroke-dashoffset: 0; stroke: #b0b0b0; stroke-width: 0.8"/>
     </g>
     <g id="line2d_26">
      <g>
       <use xlink:href="#me572695e4c" x="45" y="111.913208" style="stroke: #000000; stroke-width: 0.8"/>
      </g>
     </g>
     <g id="line2d_27">
      <g>
       <use xlink:href="#m1951d2c5ed" x="324" y="111.913208" style="stroke: #000000; stroke-width: 0.8"/>
      </g>
     </g>
     <g id="text_10">
      <!-- $\mathdefault{1.0}$ -->
      <g transform="translate(22.802948 117.10207) scale(0.15 -0.15)">
       <use xlink:href="#CMR17-31" transform="scale(0.996264)"/>
       <use xlink:href="#CMMI12-3a" transform="translate(45.690477 0) scale(0.996264)"/>
       <use xlink:href="#CMR17-30" transform="translate(72.787654 0) scale(0.996264)"/>
      </g>
     </g>
    </g>
    <g id="ytick_4">
     <g id="line2d_28">
      <path d="M 45 49.221592 
L 324 49.221592 
" clip-path="url(#pc6559ff267)" style="fill: none; stroke-dasharray: 2.96,1.28; stroke-dashoffset: 0; stroke: #b0b0b0; stroke-width: 0.8"/>
     </g>
     <g id="line2d_29">
      <g>
       <use xlink:href="#me572695e4c" x="45" y="49.221592" style="stroke: #000000; stroke-width: 0.8"/>
      </g>
     </g>
     <g id="line2d_30">
      <g>
       <use xlink:href="#m1951d2c5ed" x="324" y="49.221592" style="stroke: #000000; stroke-width: 0.8"/>
      </g>
     </g>
     <g id="text_11">
      <!-- $\mathdefault{1.5}$ -->
      <g transform="translate(22.802948 54.410455) scale(0.15 -0.15)">
       <use xlink:href="#CMR17-31" transform="scale(0.996264)"/>
       <use xlink:href="#CMMI12-3a" transform="translate(45.690477 0) scale(0.996264)"/>
       <use xlink:href="#CMR17-35" transform="translate(72.787654 0) scale(0.996264)"/>
      </g>
     </g>
    </g>
    <g id="text_12">
     <!-- $\chi''(Q,\omega)$ -->
     <g transform="translate(15.066958 172.735636) rotate(-90) scale(0.15 -0.15)">
      <defs>
       <path id="CMMI12-1f" d="M 2112 1039 
C 1939 1566 1978 1515 1818 1959 
C 1619 2505 1568 2550 1478 2639 
C 1363 2740 1146 2816 922 2816 
C 563 2816 390 2486 390 2403 
C 390 2365 422 2346 461 2346 
C 512 2346 525 2378 531 2403 
C 627 2651 826 2689 883 2689 
C 1069 2689 1248 2232 1363 1928 
C 1517 1540 1594 1273 1766 657 
L 256 -1049 
C 198 -1119 198 -1144 198 -1151 
C 198 -1202 230 -1215 256 -1215 
C 282 -1215 301 -1202 320 -1183 
C 499 -1004 896 -533 1062 -342 
L 1805 499 
C 2118 -479 2118 -492 2214 -727 
C 2317 -968 2451 -1280 2995 -1280 
C 3360 -1280 3526 -955 3526 -866 
C 3526 -822 3488 -809 3456 -809 
C 3405 -809 3398 -835 3379 -886 
C 3309 -1063 3142 -1152 3040 -1152 
C 2957 -1152 2854 -1152 2573 -447 
C 2406 -21 2259 486 2150 880 
L 3667 2594 
C 3718 2652 3725 2658 3725 2683 
C 3725 2727 3693 2746 3661 2746 
C 3642 2746 3622 2746 3558 2677 
L 2112 1039 
z
" transform="scale(0.015625)"/>
       <path id="CMSY10-30" d="M 1619 3040 
C 1651 3117 1677 3174 1677 3238 
C 1677 3424 1510 3578 1312 3578 
C 1133 3578 1018 3456 973 3290 
L 211 493 
C 211 480 186 410 186 403 
C 186 333 352 288 403 288 
C 442 288 448 307 486 390 
L 1619 3040 
z
" transform="scale(0.015625)"/>
       <path id="CMR17-28" d="M 1958 -1561 
C 1958 -1555 1958 -1542 1939 -1523 
C 1645 -1224 858 -407 858 1581 
C 858 3569 1632 4379 1946 4697 
C 1946 4704 1958 4717 1958 4736 
C 1958 4755 1939 4768 1914 4768 
C 1843 4768 1299 4296 986 3594 
C 666 2887 576 2199 576 1588 
C 576 1128 621 351 1005 -471 
C 1312 -1135 1837 -1600 1914 -1600 
C 1946 -1600 1958 -1587 1958 -1561 
z
" transform="scale(0.015625)"/>
       <path id="CMMI12-51" d="M 2726 45 
C 3827 490 4646 1663 4646 2829 
C 4646 3893 3955 4544 3059 4544 
C 1690 4544 307 3062 307 1573 
C 307 561 973 -128 1901 -128 
C 2118 -128 2330 -96 2534 -33 
C 2496 -411 2496 -442 2496 -562 
C 2496 -744 2496 -1216 3008 -1216 
C 3770 -1216 4051 -37 4051 2 
C 4051 39 4026 64 3994 64 
C 3955 64 3942 34 3923 -36 
C 3782 -429 3450 -654 3168 -654 
C 2842 -654 2758 -435 2726 45 
z
M 1574 77 
C 1069 252 826 787 826 1379 
C 826 1831 992 2689 1414 3340 
C 1888 4075 2522 4404 3021 4404 
C 3686 4404 4134 3862 4134 3024 
C 4134 2547 3910 948 2707 240 
C 2675 571 2586 960 2163 960 
C 1818 960 1523 609 1523 291 
C 1523 220 1549 123 1574 77 
z
M 2547 156 
C 2317 52 2118 12 1939 12 
C 1875 12 1651 12 1651 298 
C 1651 533 1875 832 2163 832 
C 2483 832 2554 611 2554 286 
C 2554 246 2554 194 2547 156 
z
" transform="scale(0.015625)"/>
       <path id="CMMI12-3b" d="M 1248 -31 
C 1248 343 1126 619 864 619 
C 659 619 557 453 557 313 
C 557 172 653 0 870 0 
C 954 0 1024 26 1082 83 
C 1094 96 1101 96 1107 96 
C 1120 96 1120 5 1120 -27 
C 1120 -240 1082 -659 710 -1080 
C 640 -1157 640 -1170 640 -1183 
C 640 -1216 672 -1248 704 -1248 
C 755 -1248 1248 -771 1248 -31 
z
" transform="scale(0.015625)"/>
       <path id="CMMI12-21" d="M 3802 2395 
C 3802 2580 3750 2816 3526 2816 
C 3398 2816 3251 2657 3251 2529 
C 3251 2472 3277 2434 3328 2376 
C 3424 2268 3546 2096 3546 1797 
C 3546 1567 3405 1204 3302 1007 
C 3123 656 2829 357 2496 357 
C 2093 357 1939 615 1869 975 
C 1939 1143 2086 1560 2086 1728 
C 2086 1798 2061 1856 1978 1856 
C 1933 1856 1882 1831 1850 1779 
C 1760 1638 1677 1129 1683 994 
C 1562 756 1216 357 806 357 
C 378 357 262 733 262 1096 
C 262 1758 678 2338 794 2497 
C 858 2593 902 2657 902 2669 
C 902 2714 877 2784 819 2784 
C 717 2784 685 2701 634 2625 
C 307 2121 77 1414 77 803 
C 77 408 224 -64 704 -64 
C 1235 -64 1568 391 1702 634 
C 1754 275 1946 -64 2413 -64 
C 2899 -64 3206 363 3437 879 
C 3603 1249 3802 2045 3802 2395 
z
" transform="scale(0.015625)"/>
       <path id="CMR17-29" d="M 1683 1581 
C 1683 2040 1638 2817 1254 3639 
C 947 4303 422 4768 346 4768 
C 326 4768 301 4761 301 4729 
C 301 4717 307 4710 314 4697 
C 621 4378 1402 3568 1402 1584 
C 1402 -407 627 -1217 314 -1537 
C 307 -1549 301 -1556 301 -1568 
C 301 -1600 326 -1600 346 -1600 
C 416 -1600 960 -1128 1274 -426 
C 1594 281 1683 969 1683 1581 
z
" transform="scale(0.015625)"/>
      </defs>
      <use xlink:href="#CMMI12-1f" transform="scale(0.996264)"/>
      <use xlink:href="#CMSY10-30" transform="translate(61.112959 36.153639) scale(0.697382)"/>
      <use xlink:href="#CMSY10-30" transform="translate(80.29092 36.153639) scale(0.697382)"/>
      <use xlink:href="#CMR17-28" transform="translate(99.967012 0) scale(0.996264)"/>
      <use xlink:href="#CMMI12-51" transform="translate(135.24778 0) scale(0.996264)"/>
      <use xlink:href="#CMMI12-3b" transform="translate(212.508179 0) scale(0.996264)"/>
      <use xlink:href="#CMMI12-21" transform="translate(256.209761 0) scale(0.996264)"/>
      <use xlink:href="#CMR17-29" transform="translate(320.528107 0) scale(0.996264)"/>
     </g>
    </g>
   </g>
   <g id="LineCollection_1">
    <path d="M 57.681818 236.484856 
L 57.681818 223.018711 
" clip-path="url(#pc6559ff267)" style="fill: none; stroke: #1b9e77; stroke-width: 1.5"/>
    <path d="M 72.038593 246.24 
L 72.038593 228.352879 
" clip-path="url(#pc6559ff267)" style="fill: none; stroke: #1b9e77; stroke-width: 1.5"/>
    <path d="M 86.395369 229.075394 
L 86.395369 211.243134 
" clip-path="url(#pc6559ff267)" style="fill: none; stroke: #1b9e77; stroke-width: 1.5"/>
    <path d="M 95.966552 235.672492 
L 95.966552 220.125723 
" clip-path="url(#pc6559ff267)" style="fill: none; stroke: #1b9e77; stroke-width: 1.5"/>
    <path d="M 119.894511 231.243192 
L 119.894511 211.341201 
" clip-path="url(#pc6559ff267)" style="fill: none; stroke: #1b9e77; stroke-width: 1.5"/>
    <path d="M 143.82247 211.218717 
L 143.82247 194.087377 
" clip-path="url(#pc6559ff267)" style="fill: none; stroke: #1b9e77; stroke-width: 1.5"/>
    <path d="M 158.179245 217.509801 
L 158.179245 192.695354 
" clip-path="url(#pc6559ff267)" style="fill: none; stroke: #1b9e77; stroke-width: 1.5"/>
    <path d="M 177.321612 205.861475 
L 177.321612 140.065856 
" clip-path="url(#pc6559ff267)" style="fill: none; stroke: #1b9e77; stroke-width: 1.5"/>
    <path d="M 191.678388 211.490394 
L 191.678388 178.50534 
" clip-path="url(#pc6559ff267)" style="fill: none; stroke: #1b9e77; stroke-width: 1.5"/>
    <path d="M 215.606346 137.854879 
L 215.606346 58.917554 
" clip-path="url(#pc6559ff267)" style="fill: none; stroke: #1b9e77; stroke-width: 1.5"/>
    <path d="M 239.534305 183.187282 
L 239.534305 144.009392 
" clip-path="url(#pc6559ff267)" style="fill: none; stroke: #1b9e77; stroke-width: 1.5"/>
    <path d="M 263.462264 166.967452 
L 263.462264 131.543801 
" clip-path="url(#pc6559ff267)" style="fill: none; stroke: #1b9e77; stroke-width: 1.5"/>
    <path d="M 287.390223 141.956538 
L 287.390223 98.775144 
" clip-path="url(#pc6559ff267)" style="fill: none; stroke: #1b9e77; stroke-width: 1.5"/>
    <path d="M 311.318182 156.402716 
L 311.318182 44.64 
" clip-path="url(#pc6559ff267)" style="fill: none; stroke: #1b9e77; stroke-width: 1.5"/>
   </g>
   <g id="line2d_31">
    <defs>
     <path id="mf6f688ec49" d="M 2 0 
L -2 -0 
" style="stroke: #1b9e77"/>
    </defs>
    <g clip-path="url(#pc6559ff267)">
     <use xlink:href="#mf6f688ec49" x="57.681818" y="236.484856" style="fill: #1b9e77; stroke: #1b9e77"/>
     <use xlink:href="#mf6f688ec49" x="72.038593" y="246.24" style="fill: #1b9e77; stroke: #1b9e77"/>
     <use xlink:href="#mf6f688ec49" x="86.395369" y="229.075394" style="fill: #1b9e77; stroke: #1b9e77"/>
     <use xlink:href="#mf6f688ec49" x="95.966552" y="235.672492" style="fill: #1b9e77; stroke: #1b9e77"/>
     <use xlink:href="#mf6f688ec49" x="119.894511" y="231.243192" style="fill: #1b9e77; stroke: #1b9e77"/>
     <use xlink:href="#mf6f688ec49" x="143.82247" y="211.218717" style="fill: #1b9e77; stroke: #1b9e77"/>
     <use xlink:href="#mf6f688ec49" x="158.179245" y="217.509801" style="fill: #1b9e77; stroke: #1b9e77"/>
     <use xlink:href="#mf6f688ec49" x="177.321612" y="205.861475" style="fill: #1b9e77; stroke: #1b9e77"/>
     <use xlink:href="#mf6f688ec49" x="191.678388" y="211.490394" style="fill: #1b9e77; stroke: #1b9e77"/>
     <use xlink:href="#mf6f688ec49" x="215.606346" y="137.854879" style="fill: #1b9e77; stroke: #1b9e77"/>
     <use xlink:href="#mf6f688ec49" x="239.534305" y="183.187282" style="fill: #1b9e77; stroke: #1b9e77"/>
     <use xlink:href="#mf6f688ec49" x="263.462264" y="166.967452" style="fill: #1b9e77; stroke: #1b9e77"/>
     <use xlink:href="#mf6f688ec49" x="287.390223" y="141.956538" style="fill: #1b9e77; stroke: #1b9e77"/>
     <use xlink:href="#mf6f688ec49" x="311.318182" y="156.402716" style="fill: #1b9e77; stroke: #1b9e77"/>
    </g>
   </g>
   <g id="line2d_32">
    <g clip-path="url(#pc6559ff267)">
     <use xlink:href="#mf6f688ec49" x="57.681818" y="223.018711" style="fill: #1b9e77; stroke: #1b9e77"/>
     <use xlink:href="#mf6f688ec49" x="72.038593" y="228.352879" style="fill: #1b9e77; stroke: #1b9e77"/>
     <use xlink:href="#mf6f688ec49" x="86.395369" y="211.243134" style="fill: #1b9e77; stroke: #1b9e77"/>
     <use xlink:href="#mf6f688ec49" x="95.966552" y="220.125723" style="fill: #1b9e77; stroke: #1b9e77"/>
     <use xlink:href="#mf6f688ec49" x="119.894511" y="211.341201" style="fill: #1b9e77; stroke: #1b9e77"/>
     <use xlink:href="#mf6f688ec49" x="143.82247" y="194.087377" style="fill: #1b9e77; stroke: #1b9e77"/>
     <use xlink:href="#mf6f688ec49" x="158.179245" y="192.695354" style="fill: #1b9e77; stroke: #1b9e77"/>
     <use xlink:href="#mf6f688ec49" x="177.321612" y="140.065856" style="fill: #1b9e77; stroke: #1b9e77"/>
     <use xlink:href="#mf6f688ec49" x="191.678388" y="178.50534" style="fill: #1b9e77; stroke: #1b9e77"/>
     <use xlink:href="#mf6f688ec49" x="215.606346" y="58.917554" style="fill: #1b9e77; stroke: #1b9e77"/>
     <use xlink:href="#mf6f688ec49" x="239.534305" y="144.009392" style="fill: #1b9e77; stroke: #1b9e77"/>
     <use xlink:href="#mf6f688ec49" x="263.462264" y="131.543801" style="fill: #1b9e77; stroke: #1b9e77"/>
     <use xlink:href="#mf6f688ec49" x="287.390223" y="98.775144" style="fill: #1b9e77; stroke: #1b9e77"/>
     <use xlink:href="#mf6f688ec49" x="311.318182" y="44.64" style="fill: #1b9e77; stroke: #1b9e77"/>
    </g>
   </g>
   <g id="LineCollection_2">
    <path d="M 57.681818 231.47237 
L 57.681818 214.596198 
" clip-path="url(#pc6559ff267)" style="fill: none; stroke: #7570b3; stroke-width: 1.5"/>
    <path d="M 62.46741 214.353877 
L 62.46741 200.094449 
" clip-path="url(#pc6559ff267)" style="fill: none; stroke: #7570b3; stroke-width: 1.5"/>
    <path d="M 67.253002 184.469425 
L 67.253002 174.305815 
" clip-path="url(#pc6559ff267)" style="fill: none; stroke: #7570b3; stroke-width: 1.5"/>
    <path d="M 72.038593 178.488402 
L 72.038593 157.116561 
" clip-path="url(#pc6559ff267)" style="fill: none; stroke: #7570b3; stroke-width: 1.5"/>
    <path d="M 86.395369 166.540242 
L 86.395369 152.976262 
" clip-path="url(#pc6559ff267)" style="fill: none; stroke: #7570b3; stroke-width: 1.5"/>
    <path d="M 95.966552 176.324564 
L 95.966552 157.129213 
" clip-path="url(#pc6559ff267)" style="fill: none; stroke: #7570b3; stroke-width: 1.5"/>
    <path d="M 119.894511 167.833962 
L 119.894511 147.376639 
" clip-path="url(#pc6559ff267)" style="fill: none; stroke: #7570b3; stroke-width: 1.5"/>
    <path d="M 143.82247 170.07891 
L 143.82247 157.460916 
" clip-path="url(#pc6559ff267)" style="fill: none; stroke: #7570b3; stroke-width: 1.5"/>
    <path d="M 158.179245 185.795319 
L 158.179245 168.747972 
" clip-path="url(#pc6559ff267)" style="fill: none; stroke: #7570b3; stroke-width: 1.5"/>
    <path d="M 177.321612 162.305466 
L 177.321612 139.522005 
" clip-path="url(#pc6559ff267)" style="fill: none; stroke: #7570b3; stroke-width: 1.5"/>
    <path d="M 191.678388 170.972322 
L 191.678388 152.973887 
" clip-path="url(#pc6559ff267)" style="fill: none; stroke: #7570b3; stroke-width: 1.5"/>
    <path d="M 215.606346 176.621217 
L 215.606346 165.605078 
" clip-path="url(#pc6559ff267)" style="fill: none; stroke: #7570b3; stroke-width: 1.5"/>
    <path d="M 239.534305 165.226557 
L 239.534305 144.938093 
" clip-path="url(#pc6559ff267)" style="fill: none; stroke: #7570b3; stroke-width: 1.5"/>
    <path d="M 263.462264 161.949975 
L 263.462264 145.379841 
" clip-path="url(#pc6559ff267)" style="fill: none; stroke: #7570b3; stroke-width: 1.5"/>
    <path d="M 287.390223 173.63446 
L 287.390223 147.709797 
" clip-path="url(#pc6559ff267)" style="fill: none; stroke: #7570b3; stroke-width: 1.5"/>
   </g>
   <g id="line2d_33">
    <defs>
     <path id="m7304f5f071" d="M 2 0 
L -2 -0 
" style="stroke: #7570b3"/>
    </defs>
    <g clip-path="url(#pc6559ff267)">
     <use xlink:href="#m7304f5f071" x="57.681818" y="231.47237" style="fill: #7570b3; stroke: #7570b3"/>
     <use xlink:href="#m7304f5f071" x="62.46741" y="214.353877" style="fill: #7570b3; stroke: #7570b3"/>
     <use xlink:href="#m7304f5f071" x="67.253002" y="184.469425" style="fill: #7570b3; stroke: #7570b3"/>
     <use xlink:href="#m7304f5f071" x="72.038593" y="178.488402" style="fill: #7570b3; stroke: #7570b3"/>
     <use xlink:href="#m7304f5f071" x="86.395369" y="166.540242" style="fill: #7570b3; stroke: #7570b3"/>
     <use xlink:href="#m7304f5f071" x="95.966552" y="176.324564" style="fill: #7570b3; stroke: #7570b3"/>
     <use xlink:href="#m7304f5f071" x="119.894511" y="167.833962" style="fill: #7570b3; stroke: #7570b3"/>
     <use xlink:href="#m7304f5f071" x="143.82247" y="170.07891" style="fill: #7570b3; stroke: #7570b3"/>
     <use xlink:href="#m7304f5f071" x="158.179245" y="185.795319" style="fill: #7570b3; stroke: #7570b3"/>
     <use xlink:href="#m7304f5f071" x="177.321612" y="162.305466" style="fill: #7570b3; stroke: #7570b3"/>
     <use xlink:href="#m7304f5f071" x="191.678388" y="170.972322" style="fill: #7570b3; stroke: #7570b3"/>
     <use xlink:href="#m7304f5f071" x="215.606346" y="176.621217" style="fill: #7570b3; stroke: #7570b3"/>
     <use xlink:href="#m7304f5f071" x="239.534305" y="165.226557" style="fill: #7570b3; stroke: #7570b3"/>
     <use xlink:href="#m7304f5f071" x="263.462264" y="161.949975" style="fill: #7570b3; stroke: #7570b3"/>
     <use xlink:href="#m7304f5f071" x="287.390223" y="173.63446" style="fill: #7570b3; stroke: #7570b3"/>
    </g>
   </g>
   <g id="line2d_34">
    <g clip-path="url(#pc6559ff267)">
     <use xlink:href="#m7304f5f071" x="57.681818" y="214.596198" style="fill: #7570b3; stroke: #7570b3"/>
     <use xlink:href="#m7304f5f071" x="62.46741" y="200.094449" style="fill: #7570b3; stroke: #7570b3"/>
     <use xlink:href="#m7304f5f071" x="67.253002" y="174.305815" style="fill: #7570b3; stroke: #7570b3"/>
     <use xlink:href="#m7304f5f071" x="72.038593" y="157.116561" style="fill: #7570b3; stroke: #7570b3"/>
     <use xlink:href="#m7304f5f071" x="86.395369" y="152.976262" style="fill: #7570b3; stroke: #7570b3"/>
     <use xlink:href="#m7304f5f071" x="95.966552" y="157.129213" style="fill: #7570b3; stroke: #7570b3"/>
     <use xlink:href="#m7304f5f071" x="119.894511" y="147.376639" style="fill: #7570b3; stroke: #7570b3"/>
     <use xlink:href="#m7304f5f071" x="143.82247" y="157.460916" style="fill: #7570b3; stroke: #7570b3"/>
     <use xlink:href="#m7304f5f071" x="158.179245" y="168.747972" style="fill: #7570b3; stroke: #7570b3"/>
     <use xlink:href="#m7304f5f071" x="177.321612" y="139.522005" style="fill: #7570b3; stroke: #7570b3"/>
     <use xlink:href="#m7304f5f071" x="191.678388" y="152.973887" style="fill: #7570b3; stroke: #7570b3"/>
     <use xlink:href="#m7304f5f071" x="215.606346" y="165.605078" style="fill: #7570b3; stroke: #7570b3"/>
     <use xlink:href="#m7304f5f071" x="239.534305" y="144.938093" style="fill: #7570b3; stroke: #7570b3"/>
     <use xlink:href="#m7304f5f071" x="263.462264" y="145.379841" style="fill: #7570b3; stroke: #7570b3"/>
     <use xlink:href="#m7304f5f071" x="287.390223" y="147.709797" style="fill: #7570b3; stroke: #7570b3"/>
    </g>
   </g>
   <g id="line2d_35">
    <defs>
     <path id="m5fd9ec0e1d" d="M 0 3 
C 0.795609 3 1.55874 2.683901 2.12132 2.12132 
C 2.683901 1.55874 3 0.795609 3 0 
C 3 -0.795609 2.683901 -1.55874 2.12132 -2.12132 
C 1.55874 -2.683901 0.795609 -3 0 -3 
C -0.795609 -3 -1.55874 -2.683901 -2.12132 -2.12132 
C -2.683901 -1.55874 -3 -0.795609 -3 0 
C -3 0.795609 -2.683901 1.55874 -2.12132 2.12132 
C -1.55874 2.683901 -0.795609 3 0 3 
z
" style="stroke: #1b9e77"/>
    </defs>
    <g clip-path="url(#pc6559ff267)">
     <use xlink:href="#m5fd9ec0e1d" x="57.681818" y="229.751783" style="fill: #1b9e77; stroke: #1b9e77"/>
     <use xlink:href="#m5fd9ec0e1d" x="72.038593" y="237.296439" style="fill: #1b9e77; stroke: #1b9e77"/>
     <use xlink:href="#m5fd9ec0e1d" x="86.395369" y="220.159264" style="fill: #1b9e77; stroke: #1b9e77"/>
     <use xlink:href="#m5fd9ec0e1d" x="95.966552" y="227.899107" style="fill: #1b9e77; stroke: #1b9e77"/>
     <use xlink:href="#m5fd9ec0e1d" x="119.894511" y="221.292197" style="fill: #1b9e77; stroke: #1b9e77"/>
     <use xlink:href="#m5fd9ec0e1d" x="143.82247" y="202.653047" style="fill: #1b9e77; stroke: #1b9e77"/>
     <use xlink:href="#m5fd9ec0e1d" x="158.179245" y="205.102578" style="fill: #1b9e77; stroke: #1b9e77"/>
     <use xlink:href="#m5fd9ec0e1d" x="177.321612" y="172.963666" style="fill: #1b9e77; stroke: #1b9e77"/>
     <use xlink:href="#m5fd9ec0e1d" x="191.678388" y="194.997867" style="fill: #1b9e77; stroke: #1b9e77"/>
     <use xlink:href="#m5fd9ec0e1d" x="215.606346" y="98.386217" style="fill: #1b9e77; stroke: #1b9e77"/>
     <use xlink:href="#m5fd9ec0e1d" x="239.534305" y="163.598337" style="fill: #1b9e77; stroke: #1b9e77"/>
     <use xlink:href="#m5fd9ec0e1d" x="263.462264" y="149.255627" style="fill: #1b9e77; stroke: #1b9e77"/>
     <use xlink:href="#m5fd9ec0e1d" x="287.390223" y="120.365841" style="fill: #1b9e77; stroke: #1b9e77"/>
     <use xlink:href="#m5fd9ec0e1d" x="311.318182" y="100.521358" style="fill: #1b9e77; stroke: #1b9e77"/>
    </g>
   </g>
   <g id="line2d_36">
    <defs>
     <path id="ma2e820a40b" d="M 0 3 
C 0.795609 3 1.55874 2.683901 2.12132 2.12132 
C 2.683901 1.55874 3 0.795609 3 0 
C 3 -0.795609 2.683901 -1.55874 2.12132 -2.12132 
C 1.55874 -2.683901 0.795609 -3 0 -3 
C -0.795609 -3 -1.55874 -2.683901 -2.12132 -2.12132 
C -2.683901 -1.55874 -3 -0.795609 -3 0 
C -3 0.795609 -2.683901 1.55874 -2.12132 2.12132 
C -1.55874 2.683901 -0.795609 3 0 3 
z
" style="stroke: #7570b3"/>
    </defs>
    <g clip-path="url(#pc6559ff267)">
     <use xlink:href="#ma2e820a40b" x="57.681818" y="223.034284" style="fill: #7570b3; stroke: #7570b3"/>
     <use xlink:href="#ma2e820a40b" x="62.46741" y="207.224163" style="fill: #7570b3; stroke: #7570b3"/>
     <use xlink:href="#ma2e820a40b" x="67.253002" y="179.38762" style="fill: #7570b3; stroke: #7570b3"/>
     <use xlink:href="#ma2e820a40b" x="72.038593" y="167.802481" style="fill: #7570b3; stroke: #7570b3"/>
     <use xlink:href="#ma2e820a40b" x="86.395369" y="159.758252" style="fill: #7570b3; stroke: #7570b3"/>
     <use xlink:href="#ma2e820a40b" x="95.966552" y="166.726889" style="fill: #7570b3; stroke: #7570b3"/>
     <use xlink:href="#ma2e820a40b" x="119.894511" y="157.605301" style="fill: #7570b3; stroke: #7570b3"/>
     <use xlink:href="#ma2e820a40b" x="143.82247" y="163.769913" style="fill: #7570b3; stroke: #7570b3"/>
     <use xlink:href="#ma2e820a40b" x="158.179245" y="177.271646" style="fill: #7570b3; stroke: #7570b3"/>
     <use xlink:href="#ma2e820a40b" x="177.321612" y="150.913736" style="fill: #7570b3; stroke: #7570b3"/>
     <use xlink:href="#ma2e820a40b" x="191.678388" y="161.973104" style="fill: #7570b3; stroke: #7570b3"/>
     <use xlink:href="#ma2e820a40b" x="215.606346" y="171.113148" style="fill: #7570b3; stroke: #7570b3"/>
     <use xlink:href="#ma2e820a40b" x="239.534305" y="155.082325" style="fill: #7570b3; stroke: #7570b3"/>
     <use xlink:href="#ma2e820a40b" x="263.462264" y="153.664908" style="fill: #7570b3; stroke: #7570b3"/>
     <use xlink:href="#ma2e820a40b" x="287.390223" y="160.672129" style="fill: #7570b3; stroke: #7570b3"/>
    </g>
   </g>
   <g id="patch_3">
    <path d="M 45 256.32 
L 45 34.56 
" style="fill: none; stroke: #000000; stroke-width: 0.8; stroke-linejoin: miter; stroke-linecap: square"/>
   </g>
   <g id="patch_4">
    <path d="M 324 256.32 
L 324 34.56 
" style="fill: none; stroke: #000000; stroke-width: 0.8; stroke-linejoin: miter; stroke-linecap: square"/>
   </g>
   <g id="patch_5">
    <path d="M 45 256.32 
L 324 256.32 
" style="fill: none; stroke: #000000; stroke-width: 0.8; stroke-linejoin: miter; stroke-linecap: square"/>
   </g>
   <g id="patch_6">
    <path d="M 45 34.56 
L 324 34.56 
" style="fill: none; stroke: #000000; stroke-width: 0.8; stroke-linejoin: miter; stroke-linecap: square"/>
   </g>
   <g id="text_13">
    <!-- AG sample -->
    <g transform="translate(144.579185 28.56) scale(0.18 -0.18)">
     <defs>
      <path id="CMR17-41" d="M 2323 4378 
C 2291 4461 2278 4480 2214 4480 
C 2150 4480 2138 4461 2106 4378 
L 749 566 
C 627 223 371 153 147 153 
L 147 -13 
C 262 0 518 0 640 0 
C 800 0 1056 0 1210 -13 
L 1210 153 
C 909 153 864 361 864 439 
C 864 497 877 530 890 569 
L 1229 1536 
L 2906 1536 
L 3290 442 
C 3322 365 3322 352 3322 327 
C 3322 153 3046 153 2925 153 
L 2925 0 
C 3110 0 3443 0 3642 0 
C 3808 0 4128 0 4282 -13 
L 4282 153 
C 3942 153 3827 153 3744 387 
L 2323 4378 
z
M 2067 3893 
L 2848 1702 
L 1286 1702 
L 2067 3893 
z
" transform="scale(0.015625)"/>
      <path id="CMR17-47" d="M 3974 1233 
C 3974 1473 3994 1505 4390 1505 
L 4390 1670 
C 4237 1664 3891 1664 3718 1664 
C 3539 1664 3040 1664 2797 1664 
L 2797 1505 
L 2989 1505 
C 3539 1505 3552 1434 3552 1201 
L 3552 774 
C 3552 63 2720 63 2522 63 
C 1862 63 781 511 781 2160 
C 781 3808 1843 4250 2464 4250 
C 3187 4250 3712 3626 3834 2741 
C 3846 2664 3846 2651 3904 2651 
C 3974 2651 3974 2664 3974 2779 
L 3974 4288 
C 3974 4402 3968 4409 3930 4409 
C 3904 4409 3898 4402 3853 4326 
L 3571 3791 
C 3258 4187 2874 4416 2381 4416 
C 1286 4416 294 3456 294 2148 
C 294 845 1267 -128 2394 -128 
C 2912 -128 3418 56 3616 417 
C 3725 158 3904 -20 3936 -20 
C 3968 -20 3974 -13 3974 100 
L 3974 1233 
z
" transform="scale(0.015625)"/>
      <path id="CMR17-73" d="M 1978 2697 
C 1978 2813 1971 2819 1933 2819 
C 1907 2819 1901 2813 1824 2717 
C 1805 2691 1747 2626 1728 2601 
C 1523 2819 1235 2819 1126 2819 
C 416 2819 160 2447 160 2076 
C 160 1498 813 1365 998 1325 
C 1402 1243 1542 1217 1677 1101 
C 1760 1025 1901 884 1901 654 
C 1901 384 1747 38 1158 38 
C 602 38 403 460 288 1021 
C 269 1110 269 1117 218 1117 
C 166 1117 160 1110 160 983 
L 160 63 
C 160 -51 166 -58 205 -58 
C 237 -58 243 -51 275 0 
C 314 57 410 211 448 276 
C 576 103 800 -64 1158 -64 
C 1792 -64 2131 283 2131 784 
C 2131 1112 1958 1285 1875 1362 
C 1683 1561 1459 1606 1190 1657 
C 838 1735 390 1825 390 2217 
C 390 2383 480 2737 1126 2737 
C 1811 2737 1850 2094 1862 1888 
C 1869 1856 1901 1849 1920 1849 
C 1978 1849 1978 1869 1978 1978 
L 1978 2697 
z
" transform="scale(0.015625)"/>
      <path id="CMR17-61" d="M 2304 1653 
C 2304 2072 2304 2294 2035 2543 
C 1798 2752 1523 2816 1306 2816 
C 800 2816 435 2407 435 1971 
C 435 1728 627 1728 666 1728 
C 749 1728 896 1778 896 1954 
C 896 2112 774 2181 666 2181 
C 640 2181 608 2174 589 2168 
C 723 2592 1069 2714 1293 2714 
C 1613 2714 1965 2429 1965 1885 
L 1965 1600 
C 1587 1600 1133 1549 774 1357 
C 371 1133 256 813 256 570 
C 256 77 832 -64 1171 -64 
C 1523 -64 1850 139 1990 511 
C 2003 233 2182 -18 2464 -18 
C 2598 -18 2938 70 2938 567 
L 2938 920 
L 2822 920 
L 2822 562 
C 2822 178 2650 128 2566 128 
C 2304 128 2304 458 2304 738 
L 2304 1653 
z
M 1965 870 
C 1965 317 1568 38 1216 38 
C 896 38 646 275 646 570 
C 646 761 730 1100 1101 1305 
C 1408 1478 1760 1504 1965 1504 
L 1965 870 
z
" transform="scale(0.015625)"/>
      <path id="CMR17-6d" d="M 4326 1933 
C 4326 2252 4269 2790 3507 2790 
C 3072 2790 2771 2496 2656 2151 
L 2650 2151 
C 2573 2676 2195 2790 1837 2790 
C 1331 2790 1069 2400 973 2144 
L 966 2144 
L 966 2790 
L 211 2720 
L 211 2554 
C 589 2554 646 2515 646 2208 
L 646 428 
C 646 184 621 153 211 153 
L 211 -13 
C 365 0 646 0 813 0 
C 979 0 1267 0 1421 -13 
L 1421 153 
C 1011 153 986 178 986 428 
L 986 1658 
C 986 2247 1344 2688 1792 2688 
C 2266 2688 2317 2266 2317 1958 
L 2317 428 
C 2317 184 2291 153 1882 153 
L 1882 -13 
C 2035 0 2317 0 2483 0 
C 2650 0 2938 0 3091 -13 
L 3091 153 
C 2682 153 2656 178 2656 428 
L 2656 1658 
C 2656 2247 3014 2688 3462 2688 
C 3936 2688 3987 2266 3987 1958 
L 3987 428 
C 3987 184 3962 153 3552 153 
L 3552 -13 
C 3706 0 3987 0 4154 0 
C 4320 0 4608 0 4762 -13 
L 4762 153 
C 4352 153 4326 178 4326 428 
L 4326 1933 
z
" transform="scale(0.015625)"/>
      <path id="CMR17-70" d="M 1408 -1063 
C 998 -1063 973 -1037 973 -789 
L 973 402 
C 1158 134 1427 -38 1766 -38 
C 2406 -38 3053 523 3053 1388 
C 3053 2191 2496 2802 1837 2802 
C 1453 2802 1139 2592 960 2338 
L 960 2802 
L 198 2732 
L 198 2567 
C 576 2567 634 2528 634 2223 
L 634 -789 
C 634 -1031 608 -1063 198 -1063 
L 198 -1228 
C 352 -1216 634 -1216 800 -1216 
C 966 -1216 1254 -1216 1408 -1228 
L 1408 -1063 
z
M 973 2012 
C 973 2102 973 2235 1222 2471 
C 1254 2497 1472 2688 1792 2688 
C 2259 2688 2643 2108 2643 1382 
C 2643 656 2234 64 1728 64 
C 1498 64 1248 172 1056 472 
C 973 612 973 650 973 752 
L 973 2012 
z
" transform="scale(0.015625)"/>
      <path id="CMR17-6c" d="M 979 4396 
L 218 4326 
L 218 4160 
C 595 4160 653 4122 653 3817 
L 653 426 
C 653 184 627 153 218 153 
L 218 -13 
C 371 0 653 0 813 0 
C 979 0 1261 0 1414 -13 
L 1414 153 
C 1005 153 979 178 979 426 
L 979 4396 
z
" transform="scale(0.015625)"/>
      <path id="CMR17-65" d="M 2438 1472 
C 2464 1498 2464 1511 2464 1576 
C 2464 2238 2118 2816 1389 2816 
C 710 2816 173 2169 173 1383 
C 173 551 781 -64 1459 -64 
C 2176 -64 2458 607 2458 740 
C 2458 784 2419 784 2406 784 
C 2362 784 2355 771 2330 696 
C 2189 265 1837 51 1504 51 
C 1229 51 954 203 781 480 
C 582 803 582 1176 582 1472 
L 2438 1472 
z
M 589 1568 
C 634 2505 1126 2714 1382 2714 
C 1818 2714 2112 2297 2118 1568 
L 589 1568 
z
" transform="scale(0.015625)"/>
     </defs>
     <use xlink:href="#CMR17-41" transform="scale(0.996264)"/>
     <use xlink:href="#CMR17-47" transform="translate(66.469976 0) scale(0.996264)"/>
     <use xlink:href="#CMR17-73" transform="translate(168.901288 0) scale(0.996264)"/>
     <use xlink:href="#CMR17-61" transform="translate(204.702626 0) scale(0.996264)"/>
     <use xlink:href="#CMR17-6d" transform="translate(250.393103 0) scale(0.996264)"/>
     <use xlink:href="#CMR17-70" transform="translate(327.312693 0) scale(0.996264)"/>
     <use xlink:href="#CMR17-6c" transform="translate(378.208063 0) scale(0.996264)"/>
     <use xlink:href="#CMR17-65" transform="translate(403.079121 0) scale(0.996264)"/>
    </g>
   </g>
   <g id="legend_1">
    <g id="patch_7">
     <path d="M 55.5 88.371489 
L 189.670817 88.371489 
Q 192.670817 88.371489 192.670817 85.371489 
L 192.670817 45.06 
Q 192.670817 42.06 189.670817 42.06 
L 55.5 42.06 
Q 52.5 42.06 52.5 45.06 
L 52.5 85.371489 
Q 52.5 88.371489 55.5 88.371489 
z
" style="fill: #ffffff; opacity: 0.8; stroke: #cccccc; stroke-linejoin: miter"/>
    </g>
    <g id="LineCollection_3">
     <path d="M 73.5 60.81 
L 73.5 45.81 
" style="fill: none; stroke: #1b9e77; stroke-width: 1.5"/>
    </g>
    <g id="line2d_37">
     <g>
      <use xlink:href="#mf6f688ec49" x="73.5" y="60.81" style="fill: #1b9e77; stroke: #1b9e77"/>
     </g>
    </g>
    <g id="line2d_38">
     <g>
      <use xlink:href="#mf6f688ec49" x="73.5" y="45.81" style="fill: #1b9e77; stroke: #1b9e77"/>
     </g>
    </g>
    <g id="line2d_39"/>
    <g id="line2d_40">
     <g>
      <use xlink:href="#m5fd9ec0e1d" x="73.5" y="53.31" style="fill: #1b9e77; stroke: #1b9e77"/>
     </g>
    </g>
    <g id="text_14">
     <!-- $\Delta E =$ 2 meV -->
     <g transform="translate(100.5 58.56) scale(0.15 -0.15)">
      <defs>
       <path id="CMR17-1" d="M 2598 4403 
C 2547 4512 2522 4512 2470 4512 
C 2394 4512 2387 4499 2342 4409 
L 269 109 
C 262 96 237 38 237 32 
C 237 6 243 0 358 0 
L 4576 0 
C 4691 0 4698 6 4698 32 
C 4698 38 4672 96 4666 109 
L 2598 4403 
z
M 2310 4038 
L 4083 358 
L 531 358 
L 2310 4038 
z
" transform="scale(0.015625)"/>
       <path id="CMMI12-45" d="M 4448 1489 
C 4454 1508 4474 1554 4474 1579 
C 4474 1611 4448 1643 4410 1643 
C 4384 1643 4371 1637 4352 1617 
C 4339 1611 4339 1598 4282 1469 
C 3904 570 3629 185 2605 185 
L 1670 185 
C 1581 185 1568 185 1530 192 
C 1459 198 1453 211 1453 262 
C 1453 307 1466 345 1478 403 
L 1920 2176 
L 2554 2176 
C 3053 2176 3091 2066 3091 1874 
C 3091 1810 3091 1752 3046 1560 
C 3034 1534 3027 1508 3027 1489 
C 3027 1444 3059 1425 3098 1425 
C 3155 1425 3162 1469 3187 1559 
L 3552 3042 
C 3552 3073 3526 3105 3488 3105 
C 3430 3105 3424 3080 3398 2990 
C 3270 2501 3142 2361 2573 2361 
L 1965 2361 
L 2362 3930 
C 2419 4154 2432 4154 2694 4154 
L 3610 4154 
C 4397 4154 4557 3943 4557 3458 
C 4557 3451 4557 3273 4531 3062 
C 4525 3036 4518 2998 4518 2985 
C 4518 2934 4550 2915 4589 2915 
C 4634 2915 4659 2941 4672 3055 
L 4806 4174 
C 4806 4195 4819 4263 4819 4277 
C 4819 4352 4762 4352 4646 4352 
L 1523 4352 
C 1402 4352 1338 4352 1338 4229 
C 1338 4154 1382 4154 1491 4154 
C 1888 4154 1888 4114 1888 4052 
C 1888 4020 1882 3994 1862 3924 
L 998 473 
C 941 249 928 185 480 185 
C 358 185 294 185 294 70 
C 294 0 333 0 461 0 
L 3674 0 
C 3814 0 3821 6 3866 110 
L 4448 1489 
z
" transform="scale(0.015625)"/>
       <path id="CMR17-3d" d="M 4115 2017 
C 4211 2017 4307 2017 4307 2125 
C 4307 2240 4198 2240 4090 2240 
L 512 2240 
C 403 2240 294 2240 294 2125 
C 294 2017 390 2017 486 2017 
L 4115 2017 
z
M 4090 896 
C 4198 896 4307 896 4307 1011 
C 4307 1119 4211 1119 4115 1119 
L 486 1119 
C 390 1119 294 1119 294 1011 
C 294 896 403 896 512 896 
L 4090 896 
z
" transform="scale(0.015625)"/>
       <path id="CMR17-56" d="M 3776 3745 
C 3834 3886 3936 4160 4365 4160 
L 4365 4332 
C 4218 4319 4051 4319 3891 4319 
C 3738 4319 3475 4319 3328 4332 
L 3328 4160 
C 3648 4160 3661 3936 3661 3898 
C 3661 3827 3642 3783 3622 3732 
L 2362 446 
L 1043 3886 
C 1024 3931 1011 3963 1011 3994 
C 1011 4160 1267 4160 1402 4160 
L 1402 4319 
C 1197 4319 896 4319 685 4319 
C 518 4319 218 4319 64 4332 
L 64 4160 
C 435 4160 506 4135 582 3931 
L 2106 -26 
C 2138 -115 2144 -128 2214 -128 
C 2285 -128 2291 -115 2323 -26 
L 3776 3745 
z
" transform="scale(0.015625)"/>
      </defs>
      <use xlink:href="#CMR17-1" transform="scale(0.996264)"/>
      <use xlink:href="#CMMI12-45" transform="translate(76.91959 0) scale(0.996264)"/>
      <use xlink:href="#CMR17-3d" transform="translate(182.645235 0) scale(0.996264)"/>
      <use xlink:href="#CMR17-32" transform="translate(284.43599 0) scale(0.996264)"/>
      <use xlink:href="#CMR17-6d" transform="translate(360.202433 0) scale(0.996264)"/>
      <use xlink:href="#CMR17-65" transform="translate(437.122023 0) scale(0.996264)"/>
      <use xlink:href="#CMR17-56" transform="translate(477.607683 0) scale(0.996264)"/>
     </g>
    </g>
    <g id="LineCollection_4">
     <path d="M 73.5 81.715745 
L 73.5 66.715745 
" style="fill: none; stroke: #7570b3; stroke-width: 1.5"/>
    </g>
    <g id="line2d_41">
     <g>
      <use xlink:href="#m7304f5f071" x="73.5" y="81.715745" style="fill: #7570b3; stroke: #7570b3"/>
     </g>
    </g>
    <g id="line2d_42">
     <g>
      <use xlink:href="#m7304f5f071" x="73.5" y="66.715745" style="fill: #7570b3; stroke: #7570b3"/>
     </g>
    </g>
    <g id="line2d_43"/>
    <g id="line2d_44">
     <g>
      <use xlink:href="#ma2e820a40b" x="73.5" y="74.215745" style="fill: #7570b3; stroke: #7570b3"/>
     </g>
    </g>
    <g id="text_15">
     <!-- $\Delta E =$ 8 meV -->
     <g transform="translate(100.5 79.465745) scale(0.15 -0.15)">
      <defs>
       <path id="CMR17-38" d="M 1741 2264 
C 2144 2467 2554 2773 2554 3263 
C 2554 3841 1990 4179 1472 4179 
C 890 4179 378 3759 378 3180 
C 378 3021 416 2747 666 2505 
C 730 2442 998 2251 1171 2130 
C 883 1983 211 1634 211 934 
C 211 279 838 -128 1459 -128 
C 2144 -128 2720 362 2720 1010 
C 2720 1590 2330 1857 2074 2029 
L 1741 2264 
z
M 902 2822 
C 851 2854 595 3051 595 3351 
C 595 3739 998 4032 1459 4032 
C 1965 4032 2336 3676 2336 3262 
C 2336 2669 1670 2331 1638 2331 
C 1632 2331 1626 2331 1574 2370 
L 902 2822 
z
M 2080 1519 
C 2176 1449 2483 1240 2483 851 
C 2483 381 2010 25 1472 25 
C 890 25 448 438 448 940 
C 448 1443 838 1862 1280 2060 
L 2080 1519 
z
" transform="scale(0.015625)"/>
      </defs>
      <use xlink:href="#CMR17-1" transform="scale(0.996264)"/>
      <use xlink:href="#CMMI12-45" transform="translate(76.91959 0) scale(0.996264)"/>
      <use xlink:href="#CMR17-3d" transform="translate(182.645235 0) scale(0.996264)"/>
      <use xlink:href="#CMR17-38" transform="translate(284.43599 0) scale(0.996264)"/>
      <use xlink:href="#CMR17-6d" transform="translate(360.202433 0) scale(0.996264)"/>
      <use xlink:href="#CMR17-65" transform="translate(437.122023 0) scale(0.996264)"/>
      <use xlink:href="#CMR17-56" transform="translate(477.607683 0) scale(0.996264)"/>
     </g>
    </g>
   </g>
  </g>
 </g>
 <defs>
  <clipPath id="pc6559ff267">
   <rect x="45" y="34.56" width="279" height="221.76"/>
  </clipPath>
 </defs>
</svg>
