<?xml version="1.0" encoding="utf-8" standalone="no"?>
<!DOCTYPE svg PUBLIC "-//W3C//DTD SVG 1.1//EN"
  "http://www.w3.org/Graphics/SVG/1.1/DTD/svg11.dtd">
<svg xmlns:xlink="http://www.w3.org/1999/xlink" width="360pt" height="288pt" viewBox="0 0 360 288" xmlns="http://www.w3.org/2000/svg" version="1.1">
 <metadata>
  <rdf:RDF xmlns:dc="http://purl.org/dc/elements/1.1/" xmlns:cc="http://creativecommons.org/ns#" xmlns:rdf="http://www.w3.org/1999/02/22-rdf-syntax-ns#">
   <cc:Work>
    <dc:type rdf:resource="http://purl.org/dc/dcmitype/StillImage"/>
    <dc:date>2024-08-21T14:20:50.799241</dc:date>
    <dc:format>image/svg+xml</dc:format>
    <dc:creator>
     <cc:Agent>
      <dc:title>Matplotlib v3.8.4, https://matplotlib.org/</dc:title>
     </cc:Agent>
    </dc:creator>
   </cc:Work>
  </rdf:RDF>
 </metadata>
 <defs>
  <style type="text/css">*{stroke-linejoin: round; stroke-linecap: butt}</style>
 </defs>
 <g id="figure_1">
  <g id="patch_1">
   <path d="M 0 288 
L 360 288 
L 360 0 
L 0 0 
z
" style="fill: #ffffff"/>
  </g>
  <g id="axes_1">
   <g id="patch_2">
    <path d="M 45 256.32 
L 324 256.32 
L 324 34.56 
L 45 34.56 
z
" style="fill: #ffffff"/>
   </g>
   <g id="matplotlib.axis_1">
    <g id="xtick_1">
     <g id="line2d_1">
      <path d="M 45.884778 256.32 
L 45.884778 34.56 
" clip-path="url(#p5f2830952a)" style="fill: none; stroke-dasharray: 2.96,1.28; stroke-dashoffset: 0; stroke: #b0b0b0; stroke-width: 0.8"/>
     </g>
     <g id="line2d_2">
      <defs>
       <path id="mc20fd4121e" d="M 0 0 
L 0 -3.5 
" style="stroke: #000000; stroke-width: 0.8"/>
      </defs>
      <g>
       <use xlink:href="#mc20fd4121e" x="45.884778" y="256.32" style="stroke: #000000; stroke-width: 0.8"/>
      </g>
     </g>
     <g id="line2d_3">
      <defs>
       <path id="mdfd9c70ff5" d="M 0 0 
L 0 3.5 
" style="stroke: #000000; stroke-width: 0.8"/>
      </defs>
      <g>
       <use xlink:href="#mdfd9c70ff5" x="45.884778" y="34.56" style="stroke: #000000; stroke-width: 0.8"/>
      </g>
     </g>
     <g id="text_1">
      <!-- $\mathdefault{0}$ -->
      <g transform="translate(42.226659 270.197725) scale(0.15 -0.15)">
       <defs>
        <path id="CMR17-30" d="M 2688 2025 
C 2688 2416 2682 3080 2413 3591 
C 2176 4039 1798 4198 1466 4198 
C 1158 4198 768 4058 525 3597 
C 269 3118 243 2524 243 2025 
C 243 1661 250 1106 448 619 
C 723 -39 1216 -128 1466 -128 
C 1760 -128 2208 -7 2470 600 
C 2662 1042 2688 1559 2688 2025 
z
M 1466 -26 
C 1056 -26 813 325 723 812 
C 653 1188 653 1738 653 2096 
C 653 2588 653 2997 736 3387 
C 858 3929 1216 4096 1466 4096 
C 1728 4096 2067 3923 2189 3400 
C 2272 3036 2278 2607 2278 2096 
C 2278 1680 2278 1169 2202 792 
C 2067 95 1690 -26 1466 -26 
z
" transform="scale(0.015625)"/>
       </defs>
       <use xlink:href="#CMR17-30" transform="scale(0.996264)"/>
      </g>
     </g>
    </g>
    <g id="xtick_2">
     <g id="line2d_4">
      <path d="M 104.869979 256.32 
L 104.869979 34.56 
" clip-path="url(#p5f2830952a)" style="fill: none; stroke-dasharray: 2.96,1.28; stroke-dashoffset: 0; stroke: #b0b0b0; stroke-width: 0.8"/>
     </g>
     <g id="line2d_5">
      <g>
       <use xlink:href="#mc20fd4121e" x="104.869979" y="256.32" style="stroke: #000000; stroke-width: 0.8"/>
      </g>
     </g>
     <g id="line2d_6">
      <g>
       <use xlink:href="#mdfd9c70ff5" x="104.869979" y="34.56" style="stroke: #000000; stroke-width: 0.8"/>
      </g>
     </g>
     <g id="text_2">
      <!-- $\mathdefault{10}$ -->
      <g transform="translate(97.553741 270.197725) scale(0.15 -0.15)">
       <defs>
        <path id="CMR17-31" d="M 1702 4058 
C 1702 4192 1696 4192 1606 4192 
C 1357 3916 979 3827 621 3827 
C 602 3827 570 3827 563 3808 
C 557 3795 557 3782 557 3648 
C 755 3648 1088 3686 1344 3839 
L 1344 461 
C 1344 236 1331 160 781 160 
L 589 160 
L 589 0 
C 896 0 1216 0 1523 0 
C 1830 0 2150 0 2458 0 
L 2458 160 
L 2266 160 
C 1715 160 1702 230 1702 458 
L 1702 4058 
z
" transform="scale(0.015625)"/>
       </defs>
       <use xlink:href="#CMR17-31" transform="scale(0.996264)"/>
       <use xlink:href="#CMR17-30" transform="translate(45.690477 0) scale(0.996264)"/>
      </g>
     </g>
    </g>
    <g id="xtick_3">
     <g id="line2d_7">
      <path d="M 163.85518 256.32 
L 163.85518 34.56 
" clip-path="url(#p5f2830952a)" style="fill: none; stroke-dasharray: 2.96,1.28; stroke-dashoffset: 0; stroke: #b0b0b0; stroke-width: 0.8"/>
     </g>
     <g id="line2d_8">
      <g>
       <use xlink:href="#mc20fd4121e" x="163.85518" y="256.32" style="stroke: #000000; stroke-width: 0.8"/>
      </g>
     </g>
     <g id="line2d_9">
      <g>
       <use xlink:href="#mdfd9c70ff5" x="163.85518" y="34.56" style="stroke: #000000; stroke-width: 0.8"/>
      </g>
     </g>
     <g id="text_3">
      <!-- $\mathdefault{20}$ -->
      <g transform="translate(156.538942 270.197725) scale(0.15 -0.15)">
       <defs>
        <path id="CMR17-32" d="M 2669 989 
L 2554 989 
C 2490 536 2438 459 2413 420 
C 2381 369 1920 369 1830 369 
L 602 369 
C 832 619 1280 1072 1824 1597 
C 2214 1967 2669 2402 2669 3035 
C 2669 3790 2067 4224 1395 4224 
C 691 4224 262 3604 262 3030 
C 262 2780 448 2748 525 2748 
C 589 2748 781 2787 781 3010 
C 781 3207 614 3264 525 3264 
C 486 3264 448 3258 422 3245 
C 544 3790 915 4058 1306 4058 
C 1862 4058 2227 3617 2227 3035 
C 2227 2479 1901 2000 1536 1584 
L 262 146 
L 262 0 
L 2515 0 
L 2669 989 
z
" transform="scale(0.015625)"/>
       </defs>
       <use xlink:href="#CMR17-32" transform="scale(0.996264)"/>
       <use xlink:href="#CMR17-30" transform="translate(45.690477 0) scale(0.996264)"/>
      </g>
     </g>
    </g>
    <g id="xtick_4">
     <g id="line2d_10">
      <path d="M 222.840381 256.32 
L 222.840381 34.56 
" clip-path="url(#p5f2830952a)" style="fill: none; stroke-dasharray: 2.96,1.28; stroke-dashoffset: 0; stroke: #b0b0b0; stroke-width: 0.8"/>
     </g>
     <g id="line2d_11">
      <g>
       <use xlink:href="#mc20fd4121e" x="222.840381" y="256.32" style="stroke: #000000; stroke-width: 0.8"/>
      </g>
     </g>
     <g id="line2d_12">
      <g>
       <use xlink:href="#mdfd9c70ff5" x="222.840381" y="34.56" style="stroke: #000000; stroke-width: 0.8"/>
      </g>
     </g>
     <g id="text_4">
      <!-- $\mathdefault{30}$ -->
      <g transform="translate(215.524143 270.197725) scale(0.15 -0.15)">
       <defs>
        <path id="CMR17-33" d="M 1414 2157 
C 1984 2157 2234 1662 2234 1090 
C 2234 320 1824 25 1453 25 
C 1114 25 563 194 390 693 
C 422 680 454 680 486 680 
C 640 680 755 782 755 948 
C 755 1133 614 1216 486 1216 
C 378 1216 211 1165 211 926 
C 211 335 787 -128 1466 -128 
C 2176 -128 2720 430 2720 1085 
C 2720 1707 2208 2157 1600 2227 
C 2086 2328 2554 2756 2554 3329 
C 2554 3820 2048 4179 1472 4179 
C 890 4179 378 3829 378 3329 
C 378 3110 544 3072 627 3072 
C 762 3072 877 3155 877 3321 
C 877 3486 762 3569 627 3569 
C 602 3569 570 3569 544 3557 
C 730 3959 1235 4032 1459 4032 
C 1683 4032 2106 3925 2106 3320 
C 2106 3143 2080 2828 1862 2550 
C 1670 2304 1453 2304 1242 2284 
C 1210 2284 1062 2269 1037 2269 
C 992 2263 966 2257 966 2208 
C 966 2163 973 2157 1101 2157 
L 1414 2157 
z
" transform="scale(0.015625)"/>
       </defs>
       <use xlink:href="#CMR17-33" transform="scale(0.996264)"/>
       <use xlink:href="#CMR17-30" transform="translate(45.690477 0) scale(0.996264)"/>
      </g>
     </g>
    </g>
    <g id="xtick_5">
     <g id="line2d_13">
      <path d="M 281.825581 256.32 
L 281.825581 34.56 
" clip-path="url(#p5f2830952a)" style="fill: none; stroke-dasharray: 2.96,1.28; stroke-dashoffset: 0; stroke: #b0b0b0; stroke-width: 0.8"/>
     </g>
     <g id="line2d_14">
      <g>
       <use xlink:href="#mc20fd4121e" x="281.825581" y="256.32" style="stroke: #000000; stroke-width: 0.8"/>
      </g>
     </g>
     <g id="line2d_15">
      <g>
       <use xlink:href="#mdfd9c70ff5" x="281.825581" y="34.56" style="stroke: #000000; stroke-width: 0.8"/>
      </g>
     </g>
     <g id="text_5">
      <!-- $\mathdefault{40}$ -->
      <g transform="translate(274.509344 270.197725) scale(0.15 -0.15)">
       <defs>
        <path id="CMR17-34" d="M 2150 4122 
C 2150 4256 2144 4256 2029 4256 
L 128 1254 
L 128 1088 
L 1779 1088 
L 1779 457 
C 1779 224 1766 160 1318 160 
L 1197 160 
L 1197 0 
C 1402 0 1747 0 1965 0 
C 2182 0 2528 0 2733 0 
L 2733 160 
L 2611 160 
C 2163 160 2150 224 2150 457 
L 2150 1088 
L 2803 1088 
L 2803 1254 
L 2150 1254 
L 2150 4122 
z
M 1798 3703 
L 1798 1254 
L 256 1254 
L 1798 3703 
z
" transform="scale(0.015625)"/>
       </defs>
       <use xlink:href="#CMR17-34" transform="scale(0.996264)"/>
       <use xlink:href="#CMR17-30" transform="translate(45.690477 0) scale(0.996264)"/>
      </g>
     </g>
    </g>
    <g id="text_6">
     <!-- T [K] -->
     <g transform="translate(167.024913 288.31144) scale(0.15 -0.15)">
      <defs>
       <path id="CMR17-54" d="M 3981 4326 
L 288 4326 
L 179 2918 
L 294 2918 
C 378 3976 467 4160 1453 4160 
C 1568 4160 1754 4160 1805 4154 
C 1926 4135 1926 4058 1926 3912 
L 1926 459 
C 1926 230 1907 160 1376 160 
L 1197 160 
L 1197 0 
C 1504 0 1824 0 2138 0 
C 2451 0 2771 0 3078 0 
L 3078 160 
L 2899 160 
C 2368 160 2349 230 2349 459 
L 2349 3912 
C 2349 4052 2349 4129 2464 4154 
C 2515 4160 2701 4160 2816 4160 
C 3795 4160 3891 3976 3974 2918 
L 4090 2918 
L 3981 4326 
z
" transform="scale(0.015625)"/>
       <path id="CMR17-5b" d="M 1504 -1600 
L 1504 -1377 
L 902 -1377 
L 902 4544 
L 1504 4544 
L 1504 4767 
L 678 4767 
L 678 -1600 
L 1504 -1600 
z
" transform="scale(0.015625)"/>
       <path id="CMR17-4b" d="M 2362 2675 
L 3469 3782 
C 3699 4006 3942 4186 4301 4186 
L 4301 4352 
C 4173 4352 4013 4352 3885 4352 
C 3712 4352 3411 4352 3245 4358 
L 3245 4192 
C 3411 4180 3437 4065 3437 4019 
C 3437 3975 3411 3905 3386 3867 
L 1261 1738 
L 1261 3900 
C 1261 4186 1331 4186 1773 4186 
L 1773 4352 
C 1587 4352 1248 4352 1050 4352 
C 851 4352 512 4352 326 4352 
L 326 4186 
C 768 4186 838 4186 838 3899 
L 838 446 
C 838 160 768 160 326 160 
L 326 0 
C 512 0 851 0 1050 0 
C 1248 0 1587 0 1773 0 
L 1773 160 
C 1331 160 1261 160 1261 447 
L 1261 1579 
L 2080 2390 
L 3290 537 
C 3328 473 3373 390 3373 326 
C 3373 160 3194 160 3110 160 
L 3110 0 
C 3315 0 3610 0 3821 0 
C 3974 0 4237 0 4384 -6 
L 4384 160 
C 4077 160 3981 198 3789 493 
L 2362 2675 
z
" transform="scale(0.015625)"/>
       <path id="CMR17-5d" d="M 915 4767 
L 90 4767 
L 90 4544 
L 691 4544 
L 691 -1377 
L 90 -1377 
L 90 -1600 
L 915 -1600 
L 915 4767 
z
" transform="scale(0.015625)"/>
      </defs>
      <use xlink:href="#CMR17-54" transform="scale(0.996264)"/>
      <use xlink:href="#CMR17-5b" transform="translate(96.585847 0) scale(0.996264)"/>
      <use xlink:href="#CMR17-4b" transform="translate(121.456905 0) scale(0.996264)"/>
      <use xlink:href="#CMR17-5d" transform="translate(193.131683 0) scale(0.996264)"/>
     </g>
    </g>
   </g>
   <g id="matplotlib.axis_2">
    <g id="ytick_1">
     <g id="line2d_16">
      <path d="M 45 256.32 
L 324 256.32 
" clip-path="url(#p5f2830952a)" style="fill: none; stroke-dasharray: 2.96,1.28; stroke-dashoffset: 0; stroke: #b0b0b0; stroke-width: 0.8"/>
     </g>
     <g id="line2d_17">
      <defs>
       <path id="m53110f8d10" d="M 0 0 
L 3.5 0 
" style="stroke: #000000; stroke-width: 0.8"/>
      </defs>
      <g>
       <use xlink:href="#m53110f8d10" x="45" y="256.32" style="stroke: #000000; stroke-width: 0.8"/>
      </g>
     </g>
     <g id="line2d_18">
      <defs>
       <path id="m4e66bdfde6" d="M 0 0 
L -3.5 0 
" style="stroke: #000000; stroke-width: 0.8"/>
      </defs>
      <g>
       <use xlink:href="#m4e66bdfde6" x="324" y="256.32" style="stroke: #000000; stroke-width: 0.8"/>
      </g>
     </g>
     <g id="text_7">
      <!-- $\mathdefault{0.0}$ -->
      <g transform="translate(22.802948 261.508862) scale(0.15 -0.15)">
       <defs>
        <path id="CMMI12-3a" d="M 1178 307 
C 1178 492 1024 619 870 619 
C 685 619 557 466 557 313 
C 557 128 710 0 864 0 
C 1050 0 1178 153 1178 307 
z
" transform="scale(0.015625)"/>
       </defs>
       <use xlink:href="#CMR17-30" transform="scale(0.996264)"/>
       <use xlink:href="#CMMI12-3a" transform="translate(45.690477 0) scale(0.996264)"/>
       <use xlink:href="#CMR17-30" transform="translate(72.787654 0) scale(0.996264)"/>
      </g>
     </g>
    </g>
    <g id="ytick_2">
     <g id="line2d_19">
      <path d="M 45 195.060331 
L 324 195.060331 
" clip-path="url(#p5f2830952a)" style="fill: none; stroke-dasharray: 2.96,1.28; stroke-dashoffset: 0; stroke: #b0b0b0; stroke-width: 0.8"/>
     </g>
     <g id="line2d_20">
      <g>
       <use xlink:href="#m53110f8d10" x="45" y="195.060331" style="stroke: #000000; stroke-width: 0.8"/>
      </g>
     </g>
     <g id="line2d_21">
      <g>
       <use xlink:href="#m4e66bdfde6" x="324" y="195.060331" style="stroke: #000000; stroke-width: 0.8"/>
      </g>
     </g>
     <g id="text_8">
      <!-- $\mathdefault{0.5}$ -->
      <g transform="translate(22.802948 200.249194) scale(0.15 -0.15)">
       <defs>
        <path id="CMR17-35" d="M 730 3692 
C 794 3666 1056 3584 1325 3584 
C 1920 3584 2246 3911 2432 4100 
C 2432 4157 2432 4192 2394 4192 
C 2387 4192 2374 4192 2323 4163 
C 2099 4058 1837 3973 1517 3973 
C 1325 3973 1037 3999 723 4139 
C 653 4171 640 4171 634 4171 
C 602 4171 595 4164 595 4037 
L 595 2203 
C 595 2089 595 2057 659 2057 
C 691 2057 704 2070 736 2114 
C 941 2401 1222 2522 1542 2522 
C 1766 2522 2246 2382 2246 1289 
C 2246 1085 2246 715 2054 421 
C 1894 159 1645 25 1370 25 
C 947 25 518 320 403 814 
C 429 807 480 795 506 795 
C 589 795 749 840 749 1038 
C 749 1210 627 1280 506 1280 
C 358 1280 262 1190 262 1011 
C 262 454 704 -128 1382 -128 
C 2042 -128 2669 440 2669 1264 
C 2669 2030 2170 2624 1549 2624 
C 1222 2624 947 2503 730 2274 
L 730 3692 
z
" transform="scale(0.015625)"/>
       </defs>
       <use xlink:href="#CMR17-30" transform="scale(0.996264)"/>
       <use xlink:href="#CMMI12-3a" transform="translate(45.690477 0) scale(0.996264)"/>
       <use xlink:href="#CMR17-35" transform="translate(72.787654 0) scale(0.996264)"/>
      </g>
     </g>
    </g>
    <g id="ytick_3">
     <g id="line2d_22">
      <path d="M 45 133.800663 
L 324 133.800663 
" clip-path="url(#p5f2830952a)" style="fill: none; stroke-dasharray: 2.96,1.28; stroke-dashoffset: 0; stroke: #b0b0b0; stroke-width: 0.8"/>
     </g>
     <g id="line2d_23">
      <g>
       <use xlink:href="#m53110f8d10" x="45" y="133.800663" style="stroke: #000000; stroke-width: 0.8"/>
      </g>
     </g>
     <g id="line2d_24">
      <g>
       <use xlink:href="#m4e66bdfde6" x="324" y="133.800663" style="stroke: #000000; stroke-width: 0.8"/>
      </g>
     </g>
     <g id="text_9">
      <!-- $\mathdefault{1.0}$ -->
      <g transform="translate(22.802948 138.989525) scale(0.15 -0.15)">
       <use xlink:href="#CMR17-31" transform="scale(0.996264)"/>
       <use xlink:href="#CMMI12-3a" transform="translate(45.690477 0) scale(0.996264)"/>
       <use xlink:href="#CMR17-30" transform="translate(72.787654 0) scale(0.996264)"/>
      </g>
     </g>
    </g>
    <g id="ytick_4">
     <g id="line2d_25">
      <path d="M 45 72.540994 
L 324 72.540994 
" clip-path="url(#p5f2830952a)" style="fill: none; stroke-dasharray: 2.96,1.28; stroke-dashoffset: 0; stroke: #b0b0b0; stroke-width: 0.8"/>
     </g>
     <g id="line2d_26">
      <g>
       <use xlink:href="#m53110f8d10" x="45" y="72.540994" style="stroke: #000000; stroke-width: 0.8"/>
      </g>
     </g>
     <g id="line2d_27">
      <g>
       <use xlink:href="#m4e66bdfde6" x="324" y="72.540994" style="stroke: #000000; stroke-width: 0.8"/>
      </g>
     </g>
     <g id="text_10">
      <!-- $\mathdefault{1.5}$ -->
      <g transform="translate(22.802948 77.729857) scale(0.15 -0.15)">
       <use xlink:href="#CMR17-31" transform="scale(0.996264)"/>
       <use xlink:href="#CMMI12-3a" transform="translate(45.690477 0) scale(0.996264)"/>
       <use xlink:href="#CMR17-35" transform="translate(72.787654 0) scale(0.996264)"/>
      </g>
     </g>
    </g>
    <g id="text_11">
     <!-- $\chi''(Q,\omega)$ -->
     <g transform="translate(15.066958 172.735636) rotate(-90) scale(0.15 -0.15)">
      <defs>
       <path id="CMMI12-1f" d="M 2112 1039 
C 1939 1566 1978 1515 1818 1959 
C 1619 2505 1568 2550 1478 2639 
C 1363 2740 1146 2816 922 2816 
C 563 2816 390 2486 390 2403 
C 390 2365 422 2346 461 2346 
C 512 2346 525 2378 531 2403 
C 627 2651 826 2689 883 2689 
C 1069 2689 1248 2232 1363 1928 
C 1517 1540 1594 1273 1766 657 
L 256 -1049 
C 198 -1119 198 -1144 198 -1151 
C 198 -1202 230 -1215 256 -1215 
C 282 -1215 301 -1202 320 -1183 
C 499 -1004 896 -533 1062 -342 
L 1805 499 
C 2118 -479 2118 -492 2214 -727 
C 2317 -968 2451 -1280 2995 -1280 
C 3360 -1280 3526 -955 3526 -866 
C 3526 -822 3488 -809 3456 -809 
C 3405 -809 3398 -835 3379 -886 
C 3309 -1063 3142 -1152 3040 -1152 
C 2957 -1152 2854 -1152 2573 -447 
C 2406 -21 2259 486 2150 880 
L 3667 2594 
C 3718 2652 3725 2658 3725 2683 
C 3725 2727 3693 2746 3661 2746 
C 3642 2746 3622 2746 3558 2677 
L 2112 1039 
z
" transform="scale(0.015625)"/>
       <path id="CMSY10-30" d="M 1619 3040 
C 1651 3117 1677 3174 1677 3238 
C 1677 3424 1510 3578 1312 3578 
C 1133 3578 1018 3456 973 3290 
L 211 493 
C 211 480 186 410 186 403 
C 186 333 352 288 403 288 
C 442 288 448 307 486 390 
L 1619 3040 
z
" transform="scale(0.015625)"/>
       <path id="CMR17-28" d="M 1958 -1561 
C 1958 -1555 1958 -1542 1939 -1523 
C 1645 -1224 858 -407 858 1581 
C 858 3569 1632 4379 1946 4697 
C 1946 4704 1958 4717 1958 4736 
C 1958 4755 1939 4768 1914 4768 
C 1843 4768 1299 4296 986 3594 
C 666 2887 576 2199 576 1588 
C 576 1128 621 351 1005 -471 
C 1312 -1135 1837 -1600 1914 -1600 
C 1946 -1600 1958 -1587 1958 -1561 
z
" transform="scale(0.015625)"/>
       <path id="CMMI12-51" d="M 2726 45 
C 3827 490 4646 1663 4646 2829 
C 4646 3893 3955 4544 3059 4544 
C 1690 4544 307 3062 307 1573 
C 307 561 973 -128 1901 -128 
C 2118 -128 2330 -96 2534 -33 
C 2496 -411 2496 -442 2496 -562 
C 2496 -744 2496 -1216 3008 -1216 
C 3770 -1216 4051 -37 4051 2 
C 4051 39 4026 64 3994 64 
C 3955 64 3942 34 3923 -36 
C 3782 -429 3450 -654 3168 -654 
C 2842 -654 2758 -435 2726 45 
z
M 1574 77 
C 1069 252 826 787 826 1379 
C 826 1831 992 2689 1414 3340 
C 1888 4075 2522 4404 3021 4404 
C 3686 4404 4134 3862 4134 3024 
C 4134 2547 3910 948 2707 240 
C 2675 571 2586 960 2163 960 
C 1818 960 1523 609 1523 291 
C 1523 220 1549 123 1574 77 
z
M 2547 156 
C 2317 52 2118 12 1939 12 
C 1875 12 1651 12 1651 298 
C 1651 533 1875 832 2163 832 
C 2483 832 2554 611 2554 286 
C 2554 246 2554 194 2547 156 
z
" transform="scale(0.015625)"/>
       <path id="CMMI12-3b" d="M 1248 -31 
C 1248 343 1126 619 864 619 
C 659 619 557 453 557 313 
C 557 172 653 0 870 0 
C 954 0 1024 26 1082 83 
C 1094 96 1101 96 1107 96 
C 1120 96 1120 5 1120 -27 
C 1120 -240 1082 -659 710 -1080 
C 640 -1157 640 -1170 640 -1183 
C 640 -1216 672 -1248 704 -1248 
C 755 -1248 1248 -771 1248 -31 
z
" transform="scale(0.015625)"/>
       <path id="CMMI12-21" d="M 3802 2395 
C 3802 2580 3750 2816 3526 2816 
C 3398 2816 3251 2657 3251 2529 
C 3251 2472 3277 2434 3328 2376 
C 3424 2268 3546 2096 3546 1797 
C 3546 1567 3405 1204 3302 1007 
C 3123 656 2829 357 2496 357 
C 2093 357 1939 615 1869 975 
C 1939 1143 2086 1560 2086 1728 
C 2086 1798 2061 1856 1978 1856 
C 1933 1856 1882 1831 1850 1779 
C 1760 1638 1677 1129 1683 994 
C 1562 756 1216 357 806 357 
C 378 357 262 733 262 1096 
C 262 1758 678 2338 794 2497 
C 858 2593 902 2657 902 2669 
C 902 2714 877 2784 819 2784 
C 717 2784 685 2701 634 2625 
C 307 2121 77 1414 77 803 
C 77 408 224 -64 704 -64 
C 1235 -64 1568 391 1702 634 
C 1754 275 1946 -64 2413 -64 
C 2899 -64 3206 363 3437 879 
C 3603 1249 3802 2045 3802 2395 
z
" transform="scale(0.015625)"/>
       <path id="CMR17-29" d="M 1683 1581 
C 1683 2040 1638 2817 1254 3639 
C 947 4303 422 4768 346 4768 
C 326 4768 301 4761 301 4729 
C 301 4717 307 4710 314 4697 
C 621 4378 1402 3568 1402 1584 
C 1402 -407 627 -1217 314 -1537 
C 307 -1549 301 -1556 301 -1568 
C 301 -1600 326 -1600 346 -1600 
C 416 -1600 960 -1128 1274 -426 
C 1594 281 1683 969 1683 1581 
z
" transform="scale(0.015625)"/>
      </defs>
      <use xlink:href="#CMMI12-1f" transform="scale(0.996264)"/>
      <use xlink:href="#CMSY10-30" transform="translate(61.112959 36.153639) scale(0.697382)"/>
      <use xlink:href="#CMSY10-30" transform="translate(80.29092 36.153639) scale(0.697382)"/>
      <use xlink:href="#CMR17-28" transform="translate(99.967012 0) scale(0.996264)"/>
      <use xlink:href="#CMMI12-51" transform="translate(135.24778 0) scale(0.996264)"/>
      <use xlink:href="#CMMI12-3b" transform="translate(212.508179 0) scale(0.996264)"/>
      <use xlink:href="#CMMI12-21" transform="translate(256.209761 0) scale(0.996264)"/>
      <use xlink:href="#CMR17-29" transform="translate(320.528107 0) scale(0.996264)"/>
     </g>
    </g>
   </g>
   <g id="LineCollection_1">
    <path d="M 57.681818 220.73725 
L 57.681818 192.448943 
" clip-path="url(#p5f2830952a)" style="fill: none; stroke: #d95f02; stroke-width: 1.5"/>
    <path d="M 75.377378 164.149772 
L 75.377378 134.848717 
" clip-path="url(#p5f2830952a)" style="fill: none; stroke: #d95f02; stroke-width: 1.5"/>
    <path d="M 93.072939 130.110805 
L 93.072939 100.129497 
" clip-path="url(#p5f2830952a)" style="fill: none; stroke: #d95f02; stroke-width: 1.5"/>
    <path d="M 104.869979 118.16385 
L 104.869979 88.133869 
" clip-path="url(#p5f2830952a)" style="fill: none; stroke: #d95f02; stroke-width: 1.5"/>
    <path d="M 134.362579 115.285252 
L 134.362579 84.873343 
" clip-path="url(#p5f2830952a)" style="fill: none; stroke: #d95f02; stroke-width: 1.5"/>
    <path d="M 163.85518 101.448969 
L 163.85518 71.083569 
" clip-path="url(#p5f2830952a)" style="fill: none; stroke: #d95f02; stroke-width: 1.5"/>
    <path d="M 181.55074 105.988013 
L 181.55074 75.139298 
" clip-path="url(#p5f2830952a)" style="fill: none; stroke: #d95f02; stroke-width: 1.5"/>
    <path d="M 205.14482 93.801593 
L 205.14482 63.997047 
" clip-path="url(#p5f2830952a)" style="fill: none; stroke: #d95f02; stroke-width: 1.5"/>
    <path d="M 222.840381 118.619726 
L 222.840381 87.677993 
" clip-path="url(#p5f2830952a)" style="fill: none; stroke: #d95f02; stroke-width: 1.5"/>
    <path d="M 252.332981 68.119699 
L 252.332981 36.882476 
" clip-path="url(#p5f2830952a)" style="fill: none; stroke: #d95f02; stroke-width: 1.5"/>
    <path d="M 281.825581 94.457872 
L 281.825581 62.726856 
" clip-path="url(#p5f2830952a)" style="fill: none; stroke: #d95f02; stroke-width: 1.5"/>
    <path d="M 311.318182 100.289298 
L 311.318182 68.559766 
" clip-path="url(#p5f2830952a)" style="fill: none; stroke: #d95f02; stroke-width: 1.5"/>
   </g>
   <g id="line2d_28">
    <defs>
     <path id="m268abb67c2" d="M 2 0 
L -2 -0 
" style="stroke: #d95f02"/>
    </defs>
    <g clip-path="url(#p5f2830952a)">
     <use xlink:href="#m268abb67c2" x="57.681818" y="220.73725" style="fill: #d95f02; stroke: #d95f02"/>
     <use xlink:href="#m268abb67c2" x="75.377378" y="164.149772" style="fill: #d95f02; stroke: #d95f02"/>
     <use xlink:href="#m268abb67c2" x="93.072939" y="130.110805" style="fill: #d95f02; stroke: #d95f02"/>
     <use xlink:href="#m268abb67c2" x="104.869979" y="118.16385" style="fill: #d95f02; stroke: #d95f02"/>
     <use xlink:href="#m268abb67c2" x="134.362579" y="115.285252" style="fill: #d95f02; stroke: #d95f02"/>
     <use xlink:href="#m268abb67c2" x="163.85518" y="101.448969" style="fill: #d95f02; stroke: #d95f02"/>
     <use xlink:href="#m268abb67c2" x="181.55074" y="105.988013" style="fill: #d95f02; stroke: #d95f02"/>
     <use xlink:href="#m268abb67c2" x="205.14482" y="93.801593" style="fill: #d95f02; stroke: #d95f02"/>
     <use xlink:href="#m268abb67c2" x="222.840381" y="118.619726" style="fill: #d95f02; stroke: #d95f02"/>
     <use xlink:href="#m268abb67c2" x="252.332981" y="68.119699" style="fill: #d95f02; stroke: #d95f02"/>
     <use xlink:href="#m268abb67c2" x="281.825581" y="94.457872" style="fill: #d95f02; stroke: #d95f02"/>
     <use xlink:href="#m268abb67c2" x="311.318182" y="100.289298" style="fill: #d95f02; stroke: #d95f02"/>
    </g>
   </g>
   <g id="line2d_29">
    <g clip-path="url(#p5f2830952a)">
     <use xlink:href="#m268abb67c2" x="57.681818" y="192.448943" style="fill: #d95f02; stroke: #d95f02"/>
     <use xlink:href="#m268abb67c2" x="75.377378" y="134.848717" style="fill: #d95f02; stroke: #d95f02"/>
     <use xlink:href="#m268abb67c2" x="93.072939" y="100.129497" style="fill: #d95f02; stroke: #d95f02"/>
     <use xlink:href="#m268abb67c2" x="104.869979" y="88.133869" style="fill: #d95f02; stroke: #d95f02"/>
     <use xlink:href="#m268abb67c2" x="134.362579" y="84.873343" style="fill: #d95f02; stroke: #d95f02"/>
     <use xlink:href="#m268abb67c2" x="163.85518" y="71.083569" style="fill: #d95f02; stroke: #d95f02"/>
     <use xlink:href="#m268abb67c2" x="181.55074" y="75.139298" style="fill: #d95f02; stroke: #d95f02"/>
     <use xlink:href="#m268abb67c2" x="205.14482" y="63.997047" style="fill: #d95f02; stroke: #d95f02"/>
     <use xlink:href="#m268abb67c2" x="222.840381" y="87.677993" style="fill: #d95f02; stroke: #d95f02"/>
     <use xlink:href="#m268abb67c2" x="252.332981" y="36.882476" style="fill: #d95f02; stroke: #d95f02"/>
     <use xlink:href="#m268abb67c2" x="281.825581" y="62.726856" style="fill: #d95f02; stroke: #d95f02"/>
     <use xlink:href="#m268abb67c2" x="311.318182" y="68.559766" style="fill: #d95f02; stroke: #d95f02"/>
    </g>
   </g>
   <g id="LineCollection_2">
    <path d="M 57.681818 199.701048 
L 57.681818 183.403438 
" clip-path="url(#p5f2830952a)" style="fill: none; stroke: #e7298a; stroke-width: 1.5"/>
    <path d="M 75.377378 193.138027 
L 75.377378 176.460387 
" clip-path="url(#p5f2830952a)" style="fill: none; stroke: #e7298a; stroke-width: 1.5"/>
    <path d="M 93.072939 180.527817 
L 93.072939 163.286276 
" clip-path="url(#p5f2830952a)" style="fill: none; stroke: #e7298a; stroke-width: 1.5"/>
    <path d="M 104.869979 186.732806 
L 104.869979 169.973448 
" clip-path="url(#p5f2830952a)" style="fill: none; stroke: #e7298a; stroke-width: 1.5"/>
    <path d="M 134.362579 182.541566 
L 134.362579 165.569914 
" clip-path="url(#p5f2830952a)" style="fill: none; stroke: #e7298a; stroke-width: 1.5"/>
    <path d="M 163.85518 187.314329 
L 163.85518 170.619749 
" clip-path="url(#p5f2830952a)" style="fill: none; stroke: #e7298a; stroke-width: 1.5"/>
    <path d="M 181.55074 211.774372 
L 181.55074 195.886609 
" clip-path="url(#p5f2830952a)" style="fill: none; stroke: #e7298a; stroke-width: 1.5"/>
    <path d="M 205.14482 210.034286 
L 205.14482 193.943222 
" clip-path="url(#p5f2830952a)" style="fill: none; stroke: #e7298a; stroke-width: 1.5"/>
    <path d="M 222.840381 186.23475 
L 222.840381 169.243678 
" clip-path="url(#p5f2830952a)" style="fill: none; stroke: #e7298a; stroke-width: 1.5"/>
    <path d="M 252.332981 212.82626 
L 252.332981 195.448635 
" clip-path="url(#p5f2830952a)" style="fill: none; stroke: #e7298a; stroke-width: 1.5"/>
    <path d="M 281.825581 216.561622 
L 281.825581 197.852396 
" clip-path="url(#p5f2830952a)" style="fill: none; stroke: #e7298a; stroke-width: 1.5"/>
    <path d="M 311.318182 220.970399 
L 311.318182 202.038392 
" clip-path="url(#p5f2830952a)" style="fill: none; stroke: #e7298a; stroke-width: 1.5"/>
   </g>
   <g id="line2d_30">
    <defs>
     <path id="ma2aaa28fd0" d="M 2 0 
L -2 -0 
" style="stroke: #e7298a"/>
    </defs>
    <g clip-path="url(#p5f2830952a)">
     <use xlink:href="#ma2aaa28fd0" x="57.681818" y="199.701048" style="fill: #e7298a; stroke: #e7298a"/>
     <use xlink:href="#ma2aaa28fd0" x="75.377378" y="193.138027" style="fill: #e7298a; stroke: #e7298a"/>
     <use xlink:href="#ma2aaa28fd0" x="93.072939" y="180.527817" style="fill: #e7298a; stroke: #e7298a"/>
     <use xlink:href="#ma2aaa28fd0" x="104.869979" y="186.732806" style="fill: #e7298a; stroke: #e7298a"/>
     <use xlink:href="#ma2aaa28fd0" x="134.362579" y="182.541566" style="fill: #e7298a; stroke: #e7298a"/>
     <use xlink:href="#ma2aaa28fd0" x="163.85518" y="187.314329" style="fill: #e7298a; stroke: #e7298a"/>
     <use xlink:href="#ma2aaa28fd0" x="181.55074" y="211.774372" style="fill: #e7298a; stroke: #e7298a"/>
     <use xlink:href="#ma2aaa28fd0" x="205.14482" y="210.034286" style="fill: #e7298a; stroke: #e7298a"/>
     <use xlink:href="#ma2aaa28fd0" x="222.840381" y="186.23475" style="fill: #e7298a; stroke: #e7298a"/>
     <use xlink:href="#ma2aaa28fd0" x="252.332981" y="212.82626" style="fill: #e7298a; stroke: #e7298a"/>
     <use xlink:href="#ma2aaa28fd0" x="281.825581" y="216.561622" style="fill: #e7298a; stroke: #e7298a"/>
     <use xlink:href="#ma2aaa28fd0" x="311.318182" y="220.970399" style="fill: #e7298a; stroke: #e7298a"/>
    </g>
   </g>
   <g id="line2d_31">
    <g clip-path="url(#p5f2830952a)">
     <use xlink:href="#ma2aaa28fd0" x="57.681818" y="183.403438" style="fill: #e7298a; stroke: #e7298a"/>
     <use xlink:href="#ma2aaa28fd0" x="75.377378" y="176.460387" style="fill: #e7298a; stroke: #e7298a"/>
     <use xlink:href="#ma2aaa28fd0" x="93.072939" y="163.286276" style="fill: #e7298a; stroke: #e7298a"/>
     <use xlink:href="#ma2aaa28fd0" x="104.869979" y="169.973448" style="fill: #e7298a; stroke: #e7298a"/>
     <use xlink:href="#ma2aaa28fd0" x="134.362579" y="165.569914" style="fill: #e7298a; stroke: #e7298a"/>
     <use xlink:href="#ma2aaa28fd0" x="163.85518" y="170.619749" style="fill: #e7298a; stroke: #e7298a"/>
     <use xlink:href="#ma2aaa28fd0" x="181.55074" y="195.886609" style="fill: #e7298a; stroke: #e7298a"/>
     <use xlink:href="#ma2aaa28fd0" x="205.14482" y="193.943222" style="fill: #e7298a; stroke: #e7298a"/>
     <use xlink:href="#ma2aaa28fd0" x="222.840381" y="169.243678" style="fill: #e7298a; stroke: #e7298a"/>
     <use xlink:href="#ma2aaa28fd0" x="252.332981" y="195.448635" style="fill: #e7298a; stroke: #e7298a"/>
     <use xlink:href="#ma2aaa28fd0" x="281.825581" y="197.852396" style="fill: #e7298a; stroke: #e7298a"/>
     <use xlink:href="#ma2aaa28fd0" x="311.318182" y="202.038392" style="fill: #e7298a; stroke: #e7298a"/>
    </g>
   </g>
   <g id="line2d_32">
    <defs>
     <path id="m2f6b63fe05" d="M 0 3 
C 0.795609 3 1.55874 2.683901 2.12132 2.12132 
C 2.683901 1.55874 3 0.795609 3 0 
C 3 -0.795609 2.683901 -1.55874 2.12132 -2.12132 
C 1.55874 -2.683901 0.795609 -3 0 -3 
C -0.795609 -3 -1.55874 -2.683901 -2.12132 -2.12132 
C -2.683901 -1.55874 -3 -0.795609 -3 0 
C -3 0.795609 -2.683901 1.55874 -2.12132 2.12132 
C -1.55874 2.683901 -0.795609 3 0 3 
z
" style="stroke: #d95f02"/>
    </defs>
    <g clip-path="url(#p5f2830952a)">
     <use xlink:href="#m2f6b63fe05" x="57.681818" y="206.593097" style="fill: #d95f02; stroke: #d95f02"/>
     <use xlink:href="#m2f6b63fe05" x="75.377378" y="149.499245" style="fill: #d95f02; stroke: #d95f02"/>
     <use xlink:href="#m2f6b63fe05" x="93.072939" y="115.120151" style="fill: #d95f02; stroke: #d95f02"/>
     <use xlink:href="#m2f6b63fe05" x="104.869979" y="103.148859" style="fill: #d95f02; stroke: #d95f02"/>
     <use xlink:href="#m2f6b63fe05" x="134.362579" y="100.079297" style="fill: #d95f02; stroke: #d95f02"/>
     <use xlink:href="#m2f6b63fe05" x="163.85518" y="86.266269" style="fill: #d95f02; stroke: #d95f02"/>
     <use xlink:href="#m2f6b63fe05" x="181.55074" y="90.563655" style="fill: #d95f02; stroke: #d95f02"/>
     <use xlink:href="#m2f6b63fe05" x="205.14482" y="78.89932" style="fill: #d95f02; stroke: #d95f02"/>
     <use xlink:href="#m2f6b63fe05" x="222.840381" y="103.148859" style="fill: #d95f02; stroke: #d95f02"/>
     <use xlink:href="#m2f6b63fe05" x="252.332981" y="52.501087" style="fill: #d95f02; stroke: #d95f02"/>
     <use xlink:href="#m2f6b63fe05" x="281.825581" y="78.592364" style="fill: #d95f02; stroke: #d95f02"/>
     <use xlink:href="#m2f6b63fe05" x="311.318182" y="84.424532" style="fill: #d95f02; stroke: #d95f02"/>
    </g>
   </g>
   <g id="line2d_33">
    <defs>
     <path id="m273903c4fd" d="M 0 3 
C 0.795609 3 1.55874 2.683901 2.12132 2.12132 
C 2.683901 1.55874 3 0.795609 3 0 
C 3 -0.795609 2.683901 -1.55874 2.12132 -2.12132 
C 1.55874 -2.683901 0.795609 -3 0 -3 
C -0.795609 -3 -1.55874 -2.683901 -2.12132 -2.12132 
C -2.683901 -1.55874 -3 -0.795609 -3 0 
C -3 0.795609 -2.683901 1.55874 -2.12132 2.12132 
C -1.55874 2.683901 -0.795609 3 0 3 
z
" style="stroke: #e7298a"/>
    </defs>
    <g clip-path="url(#p5f2830952a)">
     <use xlink:href="#m273903c4fd" x="57.681818" y="191.552243" style="fill: #e7298a; stroke: #e7298a"/>
     <use xlink:href="#m273903c4fd" x="75.377378" y="184.799207" style="fill: #e7298a; stroke: #e7298a"/>
     <use xlink:href="#m273903c4fd" x="93.072939" y="171.907047" style="fill: #e7298a; stroke: #e7298a"/>
     <use xlink:href="#m273903c4fd" x="104.869979" y="178.353127" style="fill: #e7298a; stroke: #e7298a"/>
     <use xlink:href="#m273903c4fd" x="134.362579" y="174.05574" style="fill: #e7298a; stroke: #e7298a"/>
     <use xlink:href="#m273903c4fd" x="163.85518" y="178.967039" style="fill: #e7298a; stroke: #e7298a"/>
     <use xlink:href="#m273903c4fd" x="181.55074" y="203.830491" style="fill: #e7298a; stroke: #e7298a"/>
     <use xlink:href="#m273903c4fd" x="205.14482" y="201.988754" style="fill: #e7298a; stroke: #e7298a"/>
     <use xlink:href="#m273903c4fd" x="222.840381" y="177.739214" style="fill: #e7298a; stroke: #e7298a"/>
     <use xlink:href="#m273903c4fd" x="252.332981" y="204.137447" style="fill: #e7298a; stroke: #e7298a"/>
     <use xlink:href="#m273903c4fd" x="281.825581" y="207.207009" style="fill: #e7298a; stroke: #e7298a"/>
     <use xlink:href="#m273903c4fd" x="311.318182" y="211.504396" style="fill: #e7298a; stroke: #e7298a"/>
    </g>
   </g>
   <g id="patch_3">
    <path d="M 45 256.32 
L 45 34.56 
" style="fill: none; stroke: #000000; stroke-width: 0.8; stroke-linejoin: miter; stroke-linecap: square"/>
   </g>
   <g id="patch_4">
    <path d="M 324 256.32 
L 324 34.56 
" style="fill: none; stroke: #000000; stroke-width: 0.8; stroke-linejoin: miter; stroke-linecap: square"/>
   </g>
   <g id="patch_5">
    <path d="M 45 256.32 
L 324 256.32 
" style="fill: none; stroke: #000000; stroke-width: 0.8; stroke-linejoin: miter; stroke-linecap: square"/>
   </g>
   <g id="patch_6">
    <path d="M 45 34.56 
L 324 34.56 
" style="fill: none; stroke: #000000; stroke-width: 0.8; stroke-linejoin: miter; stroke-linecap: square"/>
   </g>
   <g id="text_12">
    <!-- SC Sample -->
    <g transform="translate(145.148537 28.56) scale(0.18 -0.18)">
     <defs>
      <path id="CMR17-53" d="M 2803 4290 
C 2803 4404 2797 4411 2758 4411 
C 2720 4411 2707 4385 2682 4328 
L 2490 3907 
C 2246 4257 1875 4416 1472 4416 
C 819 4416 294 3901 294 3253 
C 294 3056 339 2776 557 2510 
C 794 2218 1018 2167 1530 2033 
C 1722 1982 2042 1899 2106 1874 
C 2470 1722 2662 1341 2662 985 
C 2662 527 2336 38 1779 38 
C 1094 38 454 419 410 1311 
C 403 1413 397 1419 352 1419 
C 301 1419 294 1413 294 1285 
L 294 -1 
C 294 -115 301 -122 339 -122 
C 384 -122 397 -90 486 108 
C 493 127 493 140 614 381 
C 934 -39 1472 -128 1779 -128 
C 2477 -128 2970 451 2970 1124 
C 2970 1454 2848 1708 2778 1823 
C 2509 2230 2221 2306 1914 2382 
C 1869 2402 1856 2402 1498 2490 
C 1152 2579 1005 2624 845 2796 
C 666 2992 602 3196 602 3399 
C 602 3812 934 4263 1478 4263 
C 2157 4263 2579 3786 2675 2993 
C 2694 2878 2701 2872 2746 2872 
C 2803 2872 2803 2891 2803 2999 
L 2803 4290 
z
" transform="scale(0.015625)"/>
      <path id="CMR17-43" d="M 3974 4289 
C 3974 4403 3968 4410 3930 4410 
C 3904 4410 3898 4403 3853 4327 
L 3571 3792 
C 3258 4187 2874 4416 2381 4416 
C 1286 4416 294 3456 294 2148 
C 294 826 1286 -128 2387 -128 
C 3366 -128 3974 730 3974 1461 
C 3974 1524 3974 1550 3917 1550 
C 3866 1550 3866 1531 3859 1474 
C 3808 585 3168 38 2477 38 
C 1824 38 781 495 781 2147 
C 781 3805 1843 4250 2464 4250 
C 3187 4250 3712 3628 3834 2745 
C 3846 2668 3846 2655 3904 2655 
C 3974 2655 3974 2668 3974 2783 
L 3974 4289 
z
" transform="scale(0.015625)"/>
      <path id="CMR17-61" d="M 2304 1653 
C 2304 2072 2304 2294 2035 2543 
C 1798 2752 1523 2816 1306 2816 
C 800 2816 435 2407 435 1971 
C 435 1728 627 1728 666 1728 
C 749 1728 896 1778 896 1954 
C 896 2112 774 2181 666 2181 
C 640 2181 608 2174 589 2168 
C 723 2592 1069 2714 1293 2714 
C 1613 2714 1965 2429 1965 1885 
L 1965 1600 
C 1587 1600 1133 1549 774 1357 
C 371 1133 256 813 256 570 
C 256 77 832 -64 1171 -64 
C 1523 -64 1850 139 1990 511 
C 2003 233 2182 -18 2464 -18 
C 2598 -18 2938 70 2938 567 
L 2938 920 
L 2822 920 
L 2822 562 
C 2822 178 2650 128 2566 128 
C 2304 128 2304 458 2304 738 
L 2304 1653 
z
M 1965 870 
C 1965 317 1568 38 1216 38 
C 896 38 646 275 646 570 
C 646 761 730 1100 1101 1305 
C 1408 1478 1760 1504 1965 1504 
L 1965 870 
z
" transform="scale(0.015625)"/>
      <path id="CMR17-6d" d="M 4326 1933 
C 4326 2252 4269 2790 3507 2790 
C 3072 2790 2771 2496 2656 2151 
L 2650 2151 
C 2573 2676 2195 2790 1837 2790 
C 1331 2790 1069 2400 973 2144 
L 966 2144 
L 966 2790 
L 211 2720 
L 211 2554 
C 589 2554 646 2515 646 2208 
L 646 428 
C 646 184 621 153 211 153 
L 211 -13 
C 365 0 646 0 813 0 
C 979 0 1267 0 1421 -13 
L 1421 153 
C 1011 153 986 178 986 428 
L 986 1658 
C 986 2247 1344 2688 1792 2688 
C 2266 2688 2317 2266 2317 1958 
L 2317 428 
C 2317 184 2291 153 1882 153 
L 1882 -13 
C 2035 0 2317 0 2483 0 
C 2650 0 2938 0 3091 -13 
L 3091 153 
C 2682 153 2656 178 2656 428 
L 2656 1658 
C 2656 2247 3014 2688 3462 2688 
C 3936 2688 3987 2266 3987 1958 
L 3987 428 
C 3987 184 3962 153 3552 153 
L 3552 -13 
C 3706 0 3987 0 4154 0 
C 4320 0 4608 0 4762 -13 
L 4762 153 
C 4352 153 4326 178 4326 428 
L 4326 1933 
z
" transform="scale(0.015625)"/>
      <path id="CMR17-70" d="M 1408 -1063 
C 998 -1063 973 -1037 973 -789 
L 973 402 
C 1158 134 1427 -38 1766 -38 
C 2406 -38 3053 523 3053 1388 
C 3053 2191 2496 2802 1837 2802 
C 1453 2802 1139 2592 960 2338 
L 960 2802 
L 198 2732 
L 198 2567 
C 576 2567 634 2528 634 2223 
L 634 -789 
C 634 -1031 608 -1063 198 -1063 
L 198 -1228 
C 352 -1216 634 -1216 800 -1216 
C 966 -1216 1254 -1216 1408 -1228 
L 1408 -1063 
z
M 973 2012 
C 973 2102 973 2235 1222 2471 
C 1254 2497 1472 2688 1792 2688 
C 2259 2688 2643 2108 2643 1382 
C 2643 656 2234 64 1728 64 
C 1498 64 1248 172 1056 472 
C 973 612 973 650 973 752 
L 973 2012 
z
" transform="scale(0.015625)"/>
      <path id="CMR17-6c" d="M 979 4396 
L 218 4326 
L 218 4160 
C 595 4160 653 4122 653 3817 
L 653 426 
C 653 184 627 153 218 153 
L 218 -13 
C 371 0 653 0 813 0 
C 979 0 1261 0 1414 -13 
L 1414 153 
C 1005 153 979 178 979 426 
L 979 4396 
z
" transform="scale(0.015625)"/>
      <path id="CMR17-65" d="M 2438 1472 
C 2464 1498 2464 1511 2464 1576 
C 2464 2238 2118 2816 1389 2816 
C 710 2816 173 2169 173 1383 
C 173 551 781 -64 1459 -64 
C 2176 -64 2458 607 2458 740 
C 2458 784 2419 784 2406 784 
C 2362 784 2355 771 2330 696 
C 2189 265 1837 51 1504 51 
C 1229 51 954 203 781 480 
C 582 803 582 1176 582 1472 
L 2438 1472 
z
M 589 1568 
C 634 2505 1126 2714 1382 2714 
C 1818 2714 2112 2297 2118 1568 
L 589 1568 
z
" transform="scale(0.015625)"/>
     </defs>
     <use xlink:href="#CMR17-53" transform="scale(0.996264)"/>
     <use xlink:href="#CMR17-43" transform="translate(50.89537 0) scale(0.996264)"/>
     <use xlink:href="#CMR17-53" transform="translate(147.481217 0) scale(0.996264)"/>
     <use xlink:href="#CMR17-61" transform="translate(198.376586 0) scale(0.996264)"/>
     <use xlink:href="#CMR17-6d" transform="translate(244.067064 0) scale(0.996264)"/>
     <use xlink:href="#CMR17-70" transform="translate(320.986653 0) scale(0.996264)"/>
     <use xlink:href="#CMR17-6c" transform="translate(371.882023 0) scale(0.996264)"/>
     <use xlink:href="#CMR17-65" transform="translate(396.753082 0) scale(0.996264)"/>
    </g>
   </g>
   <g id="legend_1">
    <g id="patch_7">
     <path d="M 52.7 74.021789 
L 119.25471 74.021789 
Q 121.45471 74.021789 121.45471 71.821789 
L 121.45471 42.26 
Q 121.45471 40.06 119.25471 40.06 
L 52.7 40.06 
Q 50.5 40.06 50.5 42.26 
L 50.5 71.821789 
Q 50.5 74.021789 52.7 74.021789 
z
" style="fill: #ffffff; opacity: 0.8; stroke: #cccccc; stroke-linejoin: miter"/>
    </g>
    <g id="LineCollection_3">
     <path d="M 65.9 53.81 
L 65.9 42.81 
" style="fill: none; stroke: #d95f02; stroke-width: 1.5"/>
    </g>
    <g id="line2d_34">
     <g>
      <use xlink:href="#m268abb67c2" x="65.9" y="53.81" style="fill: #d95f02; stroke: #d95f02"/>
     </g>
    </g>
    <g id="line2d_35">
     <g>
      <use xlink:href="#m268abb67c2" x="65.9" y="42.81" style="fill: #d95f02; stroke: #d95f02"/>
     </g>
    </g>
    <g id="line2d_36"/>
    <g id="line2d_37">
     <g>
      <use xlink:href="#m2f6b63fe05" x="65.9" y="48.31" style="fill: #d95f02; stroke: #d95f02"/>
     </g>
    </g>
    <g id="text_13">
     <!-- 2 meV -->
     <g transform="translate(85.7 52.16) scale(0.11 -0.11)">
      <defs>
       <path id="CMR17-56" d="M 3776 3745 
C 3834 3886 3936 4160 4365 4160 
L 4365 4332 
C 4218 4319 4051 4319 3891 4319 
C 3738 4319 3475 4319 3328 4332 
L 3328 4160 
C 3648 4160 3661 3936 3661 3898 
C 3661 3827 3642 3783 3622 3732 
L 2362 446 
L 1043 3886 
C 1024 3931 1011 3963 1011 3994 
C 1011 4160 1267 4160 1402 4160 
L 1402 4319 
C 1197 4319 896 4319 685 4319 
C 518 4319 218 4319 64 4332 
L 64 4160 
C 435 4160 506 4135 582 3931 
L 2106 -26 
C 2138 -115 2144 -128 2214 -128 
C 2285 -128 2291 -115 2323 -26 
L 3776 3745 
z
" transform="scale(0.015625)"/>
      </defs>
      <use xlink:href="#CMR17-32" transform="scale(0.996264)"/>
      <use xlink:href="#CMR17-6d" transform="translate(75.766443 0) scale(0.996264)"/>
      <use xlink:href="#CMR17-65" transform="translate(152.686033 0) scale(0.996264)"/>
      <use xlink:href="#CMR17-56" transform="translate(193.171694 0) scale(0.996264)"/>
     </g>
    </g>
    <g id="LineCollection_4">
     <path d="M 65.9 69.140895 
L 65.9 58.140895 
" style="fill: none; stroke: #e7298a; stroke-width: 1.5"/>
    </g>
    <g id="line2d_38">
     <g>
      <use xlink:href="#ma2aaa28fd0" x="65.9" y="69.140895" style="fill: #e7298a; stroke: #e7298a"/>
     </g>
    </g>
    <g id="line2d_39">
     <g>
      <use xlink:href="#ma2aaa28fd0" x="65.9" y="58.140895" style="fill: #e7298a; stroke: #e7298a"/>
     </g>
    </g>
    <g id="line2d_40"/>
    <g id="line2d_41">
     <g>
      <use xlink:href="#m273903c4fd" x="65.9" y="63.640895" style="fill: #e7298a; stroke: #e7298a"/>
     </g>
    </g>
    <g id="text_14">
     <!-- 8 meV -->
     <g transform="translate(85.7 67.490895) scale(0.11 -0.11)">
      <defs>
       <path id="CMR17-38" d="M 1741 2264 
C 2144 2467 2554 2773 2554 3263 
C 2554 3841 1990 4179 1472 4179 
C 890 4179 378 3759 378 3180 
C 378 3021 416 2747 666 2505 
C 730 2442 998 2251 1171 2130 
C 883 1983 211 1634 211 934 
C 211 279 838 -128 1459 -128 
C 2144 -128 2720 362 2720 1010 
C 2720 1590 2330 1857 2074 2029 
L 1741 2264 
z
M 902 2822 
C 851 2854 595 3051 595 3351 
C 595 3739 998 4032 1459 4032 
C 1965 4032 2336 3676 2336 3262 
C 2336 2669 1670 2331 1638 2331 
C 1632 2331 1626 2331 1574 2370 
L 902 2822 
z
M 2080 1519 
C 2176 1449 2483 1240 2483 851 
C 2483 381 2010 25 1472 25 
C 890 25 448 438 448 940 
C 448 1443 838 1862 1280 2060 
L 2080 1519 
z
" transform="scale(0.015625)"/>
      </defs>
      <use xlink:href="#CMR17-38" transform="scale(0.996264)"/>
      <use xlink:href="#CMR17-6d" transform="translate(75.766443 0) scale(0.996264)"/>
      <use xlink:href="#CMR17-65" transform="translate(152.686033 0) scale(0.996264)"/>
      <use xlink:href="#CMR17-56" transform="translate(193.171694 0) scale(0.996264)"/>
     </g>
    </g>
   </g>
  </g>
 </g>
 <defs>
  <clipPath id="p5f2830952a">
   <rect x="45" y="34.56" width="279" height="221.76"/>
  </clipPath>
 </defs>
</svg>
